<svg width="49" height="35" viewBox="0 0 49 35" fill="none" xmlns="http://www.w3.org/2000/svg">
<path d="M15.903 32.7059H33.3063C40.3493 32.7059 46.0926 24.9533 46.3883 17.5205C46.396 17.3207 48.1334 16.0438 48.1334 15.8407H1.0918C1.0918 16.0438 2.81181 17.3207 2.82003 17.5205C3.1162 24.9533 8.86041 32.7059 15.903 32.7059Z" fill="#29315E"/>
<path d="M48.9328 15.1922C48.9328 16.4741 42.8198 17.5123 26.6884 17.5123C10.5561 17.5123 0 16.4741 0 15.1922C0 13.9098 10.5561 12.8716 26.6884 12.8716C42.8198 12.8716 48.9328 13.9098 48.9328 15.1922Z" fill="#F1F1F1"/>
<path d="M13.6659 34.2991C13.2547 34.9837 12.3675 35.2041 11.6839 34.7934C11.0003 34.3831 10.779 33.4955 11.1901 32.8119L12.6774 30.337C13.0877 29.6534 13.9748 29.4321 14.658 29.8423C15.3421 30.2544 15.5634 31.1407 15.1527 31.8252L13.6659 34.2991Z" fill="#29315E"/>
<path d="M37.38 32.7448C37.8136 33.4133 37.6228 34.3069 36.9533 34.7413C36.2847 35.1749 35.3907 34.9851 34.9563 34.3147L33.3864 31.8914C32.9519 31.2237 33.1432 30.3293 33.8126 29.8948C34.4817 29.4608 35.3752 29.652 35.8097 30.3215L37.38 32.7448Z" fill="#29315E"/>
<path d="M7.18537 19.1621C7.17944 19.0101 6.69023 18.0399 6.69023 17.8866L4.53027 17.626C4.53027 17.7802 5.15823 19.0101 5.16416 19.1621C5.38915 24.8091 9.75286 30.9366 15.1032 30.9366H17.1244C11.7741 30.9366 7.41036 24.8091 7.18537 19.1621Z" fill="#F1F1F1"/>
<path d="M6.83874 12.5485C6.83874 13.5995 5.98671 14.4492 4.93754 14.4492C3.88745 14.4492 3.03589 13.5995 3.03589 12.5485C3.03589 11.4993 3.88745 10.6477 4.93754 10.6477C5.98671 10.6477 6.83874 11.4993 6.83874 12.5485Z" fill="#29315E"/>
<path d="M5.52093 15.0691C5.52093 15.3872 5.26309 15.645 4.9441 15.645C4.62601 15.645 4.36816 15.3872 4.36816 15.0691V9.90172C4.36816 9.58318 4.62601 9.32579 4.9441 9.32579C5.26309 9.32579 5.52093 9.58318 5.52093 9.90172V15.0691Z" fill="#29315E"/>
<path d="M2.35401 13.1077C2.03593 13.1077 1.77808 12.8494 1.77808 12.5313C1.77808 12.2127 2.03593 11.9554 2.35401 11.9554H7.52183C7.83946 11.9554 8.09776 12.2127 8.09776 12.5313C8.09776 12.8494 7.83946 13.1077 7.52183 13.1077H2.35401Z" fill="#29315E"/>
<path d="M16.5704 11.5071C16.5704 12.5581 15.7189 13.4083 14.6688 13.4083C13.6187 13.4083 12.7676 12.5581 12.7676 11.5071C12.7676 10.4571 13.6187 9.60594 14.6688 9.60594C15.7189 9.60594 16.5704 10.4571 16.5704 11.5071Z" fill="#29315E"/>
<path d="M15.2509 14.0276C15.2509 14.3457 14.9936 14.6035 14.6741 14.6035C14.356 14.6035 14.0986 14.3457 14.0986 14.0276V8.85977C14.0986 8.54169 14.356 8.28431 14.6741 8.28431C14.9936 8.28431 15.2509 8.54169 15.2509 8.85977V14.0276Z" fill="#29315E"/>
<path d="M12.0851 12.0667C11.767 12.0667 11.5078 11.8088 11.5078 11.4898C11.5078 11.1708 11.767 10.9134 12.0851 10.9134H17.2525C17.5706 10.9134 17.8289 11.1708 17.8289 11.4898C17.8289 11.8088 17.5706 12.0667 17.2525 12.0667H12.0851Z" fill="#29315E"/>
<path d="M10.6935 13.4083H8.77539V4.63389C8.77539 2.07873 10.8546 4.76837e-06 13.4102 4.76837e-06C15.9658 4.76837e-06 18.0445 2.07873 18.0445 4.63389H16.1264C16.1264 3.13611 14.908 1.9181 13.4102 1.9181C11.9124 1.9181 10.6935 3.13611 10.6935 4.63389V13.4083Z" fill="#29315E"/>
</svg>
