<svg width="37" height="35" viewBox="0 0 37 35" fill="none" xmlns="http://www.w3.org/2000/svg">
<path d="M16.1898 32.7442C30.0685 32.7442 31.1522 24.5358 31.2365 13.9173C31.244 13.0182 32.3796 12.1026 32.3796 11.1723H0C0 12.1797 1.13928 13.172 1.15445 14.1431C1.31919 24.6504 2.85707 32.7442 16.1898 32.7442Z" fill="#29315E"/>
<path d="M28.6762 14.6356L25.4336 15.161L25.6139 16.5236L28.0859 16.1225C30.9826 15.6535 33.6323 17.5508 34.0044 20.3624C34.3764 23.1731 32.33 25.8326 29.4333 26.3015L26.9618 26.703L27.1223 27.9165L30.3645 27.3898C33.9943 26.8021 36.5585 23.4697 36.0929 19.9469C35.6261 16.4242 32.306 14.047 28.6762 14.6356Z" fill="#29315E"/>
<path d="M4.91836 15.4677C4.90699 14.6938 3.99816 13.9038 3.99816 13.1007H2.41016C2.41016 13.9038 3.31813 14.6938 3.33077 15.4677C3.46054 23.8409 4.68705 30.292 15.3114 30.292C15.5874 30.292 15.852 30.284 16.1149 30.2764C6.21818 29.9612 5.04603 23.6286 4.91836 15.4677Z" fill="#F1F1F1"/>
<path d="M12.7826 0.17839C12.7826 0.17839 12.7472 0.200722 12.6798 0.243277C12.6141 0.283725 12.5088 0.341031 12.3908 0.416872C12.3339 0.455213 12.2703 0.496924 12.2012 0.542428C12.1397 0.591303 12.0731 0.644814 12.0015 0.701272C11.8751 0.824302 11.7613 0.960383 11.6994 1.13355C11.661 1.21318 11.6391 1.31262 11.6172 1.41332C11.597 1.50222 11.5806 1.6577 11.5747 1.72385C11.5709 1.79337 11.5662 1.86415 11.562 1.93577L11.5544 2.04323L11.5717 2.10599C11.5843 2.14602 11.5881 2.181 11.5953 2.22314C11.6134 2.27117 11.6294 2.31877 11.6438 2.3668C11.723 2.55766 11.8388 2.75275 12.0128 2.96341C12.1005 3.06959 12.1932 3.17239 12.2951 3.28489L12.6192 3.63796C12.8328 3.88107 13.0573 4.14863 13.2549 4.4284C13.4521 4.71785 13.6346 5.02038 13.7589 5.36461C13.7888 5.45056 13.8183 5.53524 13.8478 5.61951C13.8714 5.70841 13.8857 5.8032 13.9004 5.89294C13.9405 6.06906 13.9333 6.25994 13.9206 6.43942L13.9105 6.57173L13.9021 6.63409L13.9008 6.63746L13.8987 6.64334L13.895 6.65556L13.8865 6.68L13.8697 6.72804C13.8457 6.79588 13.833 6.84938 13.7993 6.9248C13.7159 7.09586 13.6278 7.26987 13.5309 7.36552C13.3468 7.59514 13.1437 7.73081 12.9731 7.8509C12.8041 7.97013 12.6461 8.05313 12.5218 8.12517C12.2694 8.26632 12.1194 8.34637 12.1194 8.34637C12.1194 8.34637 12.189 8.18966 12.3465 7.94275C12.4241 7.82225 12.5189 7.67646 12.6267 7.50877C12.6748 7.42703 12.7363 7.34276 12.7772 7.2509C12.8252 7.16116 12.8753 7.07101 12.904 6.97621C12.9537 6.87636 12.944 6.80725 12.9668 6.74067C12.9731 6.69264 12.9764 6.61344 12.9819 6.54982L12.9857 6.49841L12.987 6.47312L12.9882 6.46049L12.9891 6.45374V6.45037C12.9912 6.43647 12.9739 6.55992 12.9806 6.50641L12.9621 6.43268C12.9381 6.33493 12.9326 6.23929 12.8783 6.13649L12.818 5.98312L12.7287 5.82596C12.6145 5.61318 12.4409 5.39621 12.2686 5.17079C12.0777 4.94791 11.8864 4.72164 11.6686 4.48485L11.3484 4.11787C11.2351 3.99189 11.128 3.84317 11.0227 3.69781C10.8116 3.4033 10.6326 3.03505 10.5529 2.64363C10.5399 2.54377 10.5268 2.44475 10.5137 2.34658C10.5095 2.24124 10.5188 2.12792 10.5276 2.023C10.5327 1.97076 10.5373 1.91514 10.5445 1.86879L10.574 1.76471C10.5942 1.69645 10.6144 1.62821 10.6342 1.56122L10.638 1.549L10.6444 1.52076L10.6456 1.51697L10.6486 1.50981L10.6599 1.48158L10.6827 1.42513L10.7274 1.31474C10.7594 1.24143 10.7813 1.17147 10.8272 1.10111C10.9081 0.960804 10.9844 0.828508 11.0964 0.714747C11.1908 0.59551 11.3185 0.511677 11.4289 0.432466C11.5469 0.366737 11.6631 0.316169 11.7676 0.276564C11.8763 0.248334 11.9737 0.217155 12.0668 0.201986C12.1586 0.192296 12.2429 0.183443 12.3192 0.175859C12.4679 0.158163 12.5821 0.175446 12.6609 0.172917C12.7401 0.176709 12.7826 0.17839 12.7826 0.17839Z" fill="#29315E"/>
<path d="M16.9505 0.0107107C16.9505 0.0107107 16.9143 0.0334749 16.8473 0.0751867C16.7815 0.116056 16.6762 0.173352 16.5582 0.249193C16.5014 0.287113 16.4377 0.329236 16.3691 0.375161C16.3071 0.424036 16.2401 0.477125 16.1694 0.534005C16.0425 0.657035 15.9283 0.793137 15.8668 0.966305C15.8285 1.04509 15.8066 1.14496 15.7847 1.24523C15.7649 1.33498 15.7484 1.4896 15.7421 1.55617C15.7379 1.62569 15.7337 1.69648 15.7295 1.76768L15.7219 1.87555L15.7392 1.9379C15.7514 1.97793 15.7556 2.01289 15.7628 2.05503C15.7805 2.10306 15.7969 2.1511 15.8112 2.19871C15.8904 2.38957 16.0063 2.58506 16.1803 2.7953C16.2679 2.9019 16.3602 3.00472 16.4626 3.1168L16.7866 3.47028C17.0006 3.71381 17.2252 3.98095 17.4224 4.26072C17.6192 4.55017 17.8024 4.85268 17.9263 5.19691C17.9562 5.28244 17.9866 5.36755 18.0152 5.45224C18.0392 5.54072 18.0527 5.63552 18.0679 5.72527C18.1079 5.90096 18.1012 6.09225 18.0877 6.27131L18.078 6.40405L18.0691 6.46641L18.0683 6.46978L18.0662 6.47566L18.062 6.48788L18.054 6.51191L18.0375 6.56036C18.0131 6.62778 18.0009 6.6817 17.9672 6.75712C17.8833 6.92819 17.7953 7.1022 17.6984 7.19743C17.5142 7.42747 17.3112 7.56271 17.1409 7.68322C16.9711 7.80245 16.8136 7.88545 16.6889 7.95749C16.4369 8.09864 16.2865 8.17828 16.2865 8.17828C16.2865 8.17828 16.3564 8.02197 16.514 7.77464C16.5915 7.65456 16.6859 7.50836 16.7942 7.34109C16.8422 7.25935 16.9033 7.17508 16.9446 7.08323C16.9926 6.99348 17.0424 6.90289 17.0714 6.80851C17.1211 6.70824 17.1115 6.63957 17.1346 6.573C17.1405 6.52496 17.1443 6.44534 17.1494 6.38214L17.1532 6.33073L17.1549 6.30503L17.1557 6.29238L17.1561 6.28606L17.1565 6.28269C17.1586 6.26879 17.1414 6.39224 17.1481 6.33873L17.1296 6.265C17.106 6.16725 17.1005 6.07161 17.0461 5.96881L16.9855 5.81587L16.8962 5.65787C16.7828 5.44552 16.6088 5.22809 16.4356 5.00268C16.2452 4.78022 16.0547 4.55355 15.8365 4.31676L15.5163 3.95062C15.4025 3.82422 15.2955 3.67549 15.1902 3.53013C14.9795 3.23562 14.8 2.86779 14.7208 2.47595C14.7069 2.37609 14.6947 2.27707 14.6808 2.1789C14.677 2.07356 14.6867 1.96066 14.6951 1.85532C14.7002 1.80308 14.7048 1.74788 14.7124 1.70111L14.7414 1.59746C14.7617 1.52836 14.7823 1.46054 14.8017 1.39354L14.8055 1.38089L14.8118 1.35308L14.8131 1.34929L14.816 1.34254L14.8278 1.31391L14.8502 1.25743L14.8948 1.14706C14.9264 1.07417 14.9487 1.0038 14.9947 0.933018C15.0756 0.793135 15.1518 0.66084 15.2639 0.547501C15.3587 0.427421 15.4864 0.343998 15.5959 0.264787C15.7139 0.19948 15.8302 0.148491 15.9351 0.108885C16.0438 0.0806561 16.1415 0.0494766 16.2342 0.0343084C16.3265 0.0246172 16.4104 0.0157747 16.487 0.00776863C16.6353 -0.00950527 16.7495 0.00776672 16.8283 0.00523853C16.9075 0.00903034 16.9505 0.0107107 16.9505 0.0107107Z" fill="#29315E"/>
<path d="M21.1172 0.17839C21.1172 0.17839 21.0818 0.200722 21.0144 0.243277C20.9486 0.283725 20.8433 0.341031 20.7258 0.416872C20.6684 0.455213 20.6053 0.496914 20.5366 0.54284C20.4742 0.591714 20.4076 0.644814 20.336 0.701272C20.21 0.824723 20.0959 0.960384 20.0343 1.1344C19.996 1.21318 19.9737 1.31305 19.9518 1.41332C19.932 1.50222 19.9155 1.6577 19.9096 1.72385C19.9054 1.79379 19.9012 1.86415 19.897 1.93577L19.889 2.04323L19.9067 2.10599C19.9189 2.14602 19.9227 2.181 19.9307 2.22314C19.9484 2.27117 19.964 2.31919 19.9787 2.3668C20.0579 2.55766 20.1738 2.75316 20.3478 2.96383C20.4359 3.07 20.5281 3.17282 20.6301 3.28532L20.9541 3.63839C21.1681 3.8815 21.3927 4.14862 21.5899 4.42881C21.7871 4.71826 21.9695 5.02037 22.0938 5.36502C22.1237 5.45055 22.1532 5.53565 22.1827 5.61992C22.2063 5.70882 22.2206 5.8032 22.2354 5.89294C22.2758 6.06906 22.2687 6.25994 22.2556 6.43942L22.2459 6.57214C22.2472 6.56076 22.2299 6.6859 22.2367 6.6345L22.2358 6.63787L22.2337 6.64378L22.2299 6.656L22.2215 6.68044L22.2051 6.72845C22.1806 6.79629 22.168 6.84937 22.1347 6.92521C22.0504 7.09585 21.9628 7.2703 21.8655 7.36552C21.6813 7.59557 21.4783 7.7308 21.308 7.85131C21.1382 7.97012 20.9807 8.05355 20.8564 8.12517C20.604 8.26632 20.454 8.34637 20.454 8.34637C20.454 8.34637 20.5235 8.18966 20.6811 7.94275C20.7586 7.82225 20.8534 7.67647 20.9613 7.5092C21.0093 7.42704 21.0708 7.34276 21.1121 7.2509C21.1601 7.16116 21.2099 7.07101 21.2389 6.97621C21.2887 6.87636 21.279 6.80726 21.3013 6.74111C21.308 6.69265 21.3114 6.61344 21.3169 6.54982L21.3203 6.49884L21.3224 6.47312L21.3232 6.46049L21.324 6.45418V6.4508C21.3312 6.39687 21.3144 6.52031 21.316 6.50641L21.2971 6.43268C21.2735 6.33535 21.2676 6.23971 21.2132 6.13649L21.153 5.98355L21.0637 5.82596C20.9499 5.61361 20.7763 5.3962 20.6036 5.1712C20.4127 4.9479 20.2218 4.72164 20.004 4.48485L19.6834 4.1183C19.57 3.99232 19.4634 3.84358 19.3577 3.69822C19.147 3.40329 18.9675 3.03546 18.8879 2.64404C18.8748 2.54376 18.8613 2.44475 18.8487 2.34658C18.8445 2.24124 18.8538 2.12833 18.8626 2.02342C18.8672 1.97117 18.8723 1.91598 18.8795 1.86879L18.909 1.76514C18.9292 1.69646 18.949 1.62863 18.9692 1.56163L18.973 1.549L18.9789 1.52119L18.9806 1.51697L18.9835 1.51022L18.9945 1.482L19.0172 1.42554L19.0623 1.31474C19.0943 1.24185 19.1158 1.17189 19.1622 1.10111C19.2431 0.960804 19.3189 0.828518 19.4314 0.715179C19.5262 0.59552 19.6535 0.511677 19.7634 0.432466C19.8814 0.367159 19.9977 0.316169 20.1026 0.276564C20.2113 0.248334 20.3086 0.217155 20.4013 0.201986C20.4936 0.192296 20.5779 0.183443 20.6541 0.175859C20.8024 0.158163 20.9166 0.175446 20.9958 0.172917C21.075 0.176709 21.1172 0.17839 21.1172 0.17839Z" fill="#29315E"/>
<path d="M32.4778 33.3956C32.4778 34.2778 31.9179 35 31.2324 35H1.92222C1.23756 35 0.676758 34.2778 0.676758 33.3956V33.2055C0.676758 32.3237 1.23756 31.6015 1.92222 31.6015H31.2324C31.9179 31.6015 32.4778 32.3237 32.4778 33.2055V33.3956Z" fill="#F1F1F1"/>
</svg>
