<svg width="42" height="25" viewBox="0 0 42 25" fill="none" xmlns="http://www.w3.org/2000/svg">
<path d="M20.556 2.43897C10.1316 2.43897 2.4668 12.0705 2.4668 22.4957H38.6456C38.6456 12.0705 30.9801 2.43897 20.556 2.43897Z" fill="#29315E"/>
<path d="M21.7685 3.83435H19.3457V0.849177H21.7685V3.83435Z" fill="#29315E"/>
<path d="M23.7297 0.800401C23.7297 1.24231 22.3092 1.6012 20.5573 1.6012C18.8046 1.6012 17.3828 1.24231 17.3828 0.800401C17.3828 0.357704 18.8046 1.01328e-05 20.5573 1.01328e-05C22.3092 1.01328e-05 23.7297 0.357704 23.7297 0.800401Z" fill="#29315E"/>
<path d="M41.1119 23.5019C41.1119 24.3259 40.5889 25 39.9494 25H1.16283C0.523378 25 0 24.3259 0 23.5019V23.3245C0 22.5004 0.523378 21.8264 1.16283 21.8264H39.9494C40.5889 21.8264 41.1119 22.5004 41.1119 23.3245V23.5019Z" fill="#F1F1F1"/>
<path d="M20.4618 3.76037C20.1627 3.74463 19.8613 3.73441 19.5587 3.73441C10.565 3.73441 4.0603 12.2059 4.0603 21.1995H5.86572C5.86572 12.5101 11.888 4.22903 20.4618 3.76037Z" fill="#F1F1F1"/>
</svg>
