<svg width="56" height="35" viewBox="0 0 56 35" fill="none" xmlns="http://www.w3.org/2000/svg">
<path d="M55.5883 26.7814C55.5883 27.9785 54.6088 28.9586 53.4116 28.9586H8.23334C7.03602 28.9586 6.05664 27.9785 6.05664 26.7814V2.17779C6.05664 0.980089 7.03602 -3.8147e-06 8.23334 -3.8147e-06H53.4116C54.6088 -3.8147e-06 55.5883 0.980089 55.5883 2.17779V26.7814Z" fill="#29315E"/>
<path d="M55.588 15.3034H6.05664V9.60013H55.588V15.3034Z" fill="#F1F1F1"/>
<path d="M47.1836 32.9242C47.1836 34.0668 46.2499 35 45.1078 35H2.07574C0.934218 35 0 34.0668 0 32.9242V9.43597C0 8.2939 0.934218 7.36073 2.07574 7.36073H45.1078C46.2499 7.36073 47.1836 8.2939 47.1836 9.43597V32.9242Z" fill="#F1F1F1"/>
<path d="M43.4993 15.9001C43.4388 16.2017 42.5656 16.2611 42.4576 16.5377C42.3463 16.8245 42.9468 17.4594 42.7914 17.7152C42.6327 17.9753 41.7916 17.7321 41.5926 17.9568C41.3924 18.1847 41.7387 18.9881 41.5031 19.1757C41.2664 19.3655 40.5596 18.8496 40.2945 18.9947C40.03 19.1392 40.0813 20.0129 39.7944 20.1111C39.5097 20.2066 39.0216 19.4806 38.72 19.5264C38.4243 19.5728 38.174 20.4111 37.868 20.4035C37.5708 20.3964 37.3614 19.5466 37.0592 19.4866C36.7576 19.4255 36.2362 20.1286 35.9586 20.0206C35.6733 19.9099 35.7661 19.0394 35.5108 18.8839C35.2507 18.7252 34.5198 19.2057 34.2946 19.0061C34.0671 18.806 34.4522 18.02 34.264 17.7844C34.0753 17.5477 33.224 17.7506 33.0794 17.485C32.9343 17.221 33.5637 16.6129 33.4667 16.326C33.3701 16.0419 32.5007 15.9404 32.4549 15.6399C32.4102 15.3432 33.2092 14.9903 33.2169 14.6844C33.2245 14.3877 32.4418 13.9944 32.5024 13.6928C32.5635 13.3901 33.4367 13.3307 33.5446 13.0536C33.6559 12.7678 33.0554 12.1335 33.2109 11.8777C33.3696 11.6176 34.2106 11.8608 34.4091 11.635C34.6098 11.4082 34.2635 10.6048 34.4991 10.4172C34.7358 10.2279 35.4426 10.7428 35.7083 10.5982C35.9728 10.4537 35.9204 9.57998 36.2078 9.4829C36.4925 9.38636 36.9807 10.1117 37.2817 10.0659C37.5773 10.0212 37.8277 9.18292 38.1336 9.19001C38.4314 9.19655 38.6409 10.0457 38.943 10.1063C39.2446 10.1668 39.7655 9.46489 40.0431 9.57288C40.3283 9.68469 40.2356 10.5546 40.4909 10.71C40.751 10.8682 41.4819 10.3877 41.7066 10.5862C41.9345 10.7869 41.5495 11.5723 41.7382 11.8085C41.9264 12.0452 42.7772 11.8428 42.9228 12.1079C43.0673 12.3719 42.438 12.9795 42.535 13.2669C42.6316 13.551 43.5009 13.6514 43.5467 13.9519C43.5915 14.2491 42.793 14.6026 42.7848 14.9085C42.7772 15.2058 43.5598 15.5974 43.4993 15.9001Z" fill="#F1F1F1"/>
<path d="M42.5927 24.2725H3.50195V22.6085H42.5927V24.2725Z" fill="#29315E"/>
<path d="M27.6324 28.1639H3.50195V26.4988H27.6324V28.1639Z" fill="#29315E"/>
</svg>
