<svg width="37" height="35" viewBox="0 0 37 35" fill="none" xmlns="http://www.w3.org/2000/svg">
<path d="M33.3397 18.4847C29.1119 22.7133 22.2566 22.7133 18.0271 18.4847C13.7998 14.2574 13.7993 7.40117 18.0271 3.17212C22.2566 -1.05737 29.1119 -1.05737 33.3397 3.17212C37.5674 7.40117 37.5674 14.2574 33.3397 18.4847Z" fill="#29315E"/>
<path d="M31.2364 9.28449C30.1131 10.4082 28.2917 10.4082 27.168 9.28449C26.0452 8.16124 26.0452 6.34113 27.168 5.21701C28.2917 4.09376 30.1131 4.09376 31.2364 5.21701C32.3588 6.34113 32.3588 8.16124 31.2364 9.28449Z" fill="#F1F1F1"/>
<path d="M6.85621 34.7119C6.4725 35.096 5.84446 35.096 5.46075 34.7119L2.31879 31.5691C1.93508 31.1854 1.93508 30.5573 2.31879 30.174L2.36061 30.1322C2.74475 29.7485 3.37235 29.7485 3.75606 30.1322L6.89802 33.2746C7.28216 33.6579 7.28216 34.2859 6.89845 34.6696L6.85621 34.7119Z" fill="#29315E"/>
<path d="M10.5608 32.759C10.1776 33.1427 9.54997 33.1427 9.16539 32.759L6.02386 29.6161C5.64016 29.232 5.64016 28.6044 6.02386 28.2202L6.06567 28.1784C6.44938 27.7956 7.07743 27.7956 7.4607 28.1784L10.6035 31.3208C10.9872 31.7041 10.9872 32.3326 10.6035 32.7163L10.5608 32.759Z" fill="#29315E"/>
<path d="M12.6631 29.556C12.2798 29.9402 11.6518 29.9406 11.2676 29.5569L8.12567 26.4145C7.74196 26.0304 7.74196 25.4023 8.12567 25.0191L8.16748 24.9768C8.55119 24.5935 9.17923 24.5935 9.56294 24.9768L12.7045 28.1192C13.0886 28.5025 13.0886 29.1305 12.7049 29.5147L12.6631 29.556Z" fill="#29315E"/>
<path d="M15.5078 27.3409C15.1241 27.7242 14.4961 27.7242 14.1123 27.3409L10.9704 24.1985C10.5867 23.8148 10.5867 23.1863 10.9704 22.8031L11.0122 22.7612C11.3959 22.3775 12.0235 22.3775 12.4077 22.7612L15.5501 25.9032C15.9342 26.2865 15.9342 26.9145 15.5501 27.2982L15.5078 27.3409Z" fill="#29315E"/>
<path d="M23.0206 16.841L18.6299 12.5104L2.52426 28.3953C2.47505 28.4293 2.42713 28.4667 2.38314 28.5107L0.28778 30.6061C-0.0959268 30.9894 -0.0959268 31.6178 0.28778 32.0016L1.23333 32.9475C1.61747 33.3312 2.24508 33.3312 2.62879 32.9475L3.16363 32.4127L5.19758 34.4188L23.0206 16.841Z" fill="#29315E"/>
</svg>
