<svg width="40" height="35" viewBox="0 0 40 35" fill="none" xmlns="http://www.w3.org/2000/svg">
<path d="M1.61174 35C0.725246 35 0 34.2743 0 33.3883V1.61174C0 0.725235 0.725246 0 1.61174 0H37.5867C38.4732 0 39.1984 0.725235 39.1984 1.61174V33.3883C39.1984 34.2743 38.4732 35 37.5867 35H1.61174Z" fill="#29315E"/>
<path d="M4.04653 3.22175C3.64988 3.22175 3.32692 3.54426 3.32692 3.94091V31.0595C3.32692 31.4557 3.64988 31.7778 4.04653 31.7778H35.152C35.5491 31.7778 35.8716 31.4557 35.8716 31.0595V3.94091C35.8716 3.54426 35.5491 3.22175 35.152 3.22175H4.04653ZM35.152 33.1091H4.04653C2.91597 33.1091 1.99609 32.1897 1.99609 31.0595V3.94091C1.99609 2.81035 2.91597 1.89091 4.04653 1.89091H35.152C36.2826 1.89091 37.2029 2.81035 37.2029 3.94091V31.0595C37.2029 32.1897 36.2826 33.1091 35.152 33.1091Z" fill="#F1F1F1"/>
<path d="M16.0976 17.6368H20.9163C22.1544 17.6368 23.1514 17.2661 23.9087 16.5244C24.6661 15.7827 25.0445 14.8035 25.0445 13.5858C25.0445 12.5419 24.7068 11.6112 24.0314 10.7928C23.3565 9.97432 22.3794 9.5651 21.1006 9.5651H16.0976V17.6368ZM16.0976 28.3177H13.4736V7.37074H20.9007C23.2234 7.37074 24.937 8.00235 26.042 9.26556C27.1469 10.5292 27.6992 11.9693 27.6992 13.5858C27.6992 15.3865 27.098 16.8751 25.8959 18.0512C24.6938 19.2277 23.1211 19.816 21.1773 19.816H16.0976V28.3177Z" fill="#F1F1F1"/>
</svg>
