<svg width="35" height="35" viewBox="0 0 35 35" fill="none" xmlns="http://www.w3.org/2000/svg">
<path d="M21.9253 16.5667C21.9253 16.7219 21.7976 16.85 21.6413 16.85H12.92C12.764 16.85 12.6367 16.7219 12.6367 16.5667V11.1617C12.6367 11.0057 12.764 10.8784 12.92 10.8784H21.6413C21.7976 10.8784 21.9253 11.0057 21.9253 11.1617V16.5667Z" fill="#29315E"/>
<path d="M34.5618 33.9451C34.5618 34.5252 34.087 35 33.5069 35H1.05447C0.474414 35 0 34.5252 0 33.9451V12.79C0 12.21 0.474414 11.7351 1.05447 11.7351H33.5069C34.087 11.7351 34.5618 12.21 34.5618 12.79V33.9451Z" fill="#29315E"/>
<path d="M30.417 30.2447C30.417 30.6854 30.056 31.0464 29.6152 31.0464H4.94803C4.5069 31.0464 4.14624 30.6854 4.14624 30.2447V14.9586C4.14624 14.517 4.5069 14.1568 4.94803 14.1568H29.6152C30.056 14.1568 30.417 14.517 30.417 14.9586V30.2447Z" fill="#F1F1F1"/>
<path d="M6.68935 33.0451C6.68935 33.4587 6.35348 33.7946 5.93943 33.7946H4.89541C4.48136 33.7946 4.14624 33.4587 4.14624 33.0451C4.14624 32.6302 4.48136 32.2951 4.89541 32.2951H5.93943C6.35348 32.2951 6.68935 32.6302 6.68935 33.0451Z" fill="#F1F1F1"/>
<path d="M10.4074 33.0451C10.4074 33.4588 10.0707 33.7947 9.65782 33.7947H8.61303C8.19898 33.7947 7.86426 33.4588 7.86426 33.0451C7.86426 32.6303 8.19898 32.2952 8.61303 32.2952H9.65782C10.0707 32.2952 10.4074 32.6303 10.4074 33.0451Z" fill="#F1F1F1"/>
<path d="M27.4028 1.5774C27.1969 1.89471 26.772 1.98487 26.4555 1.77901L25.6564 1.25933C25.3387 1.05308 25.249 0.62935 25.4556 0.312429C25.6615 -0.00526547 26.0848 -0.0954168 26.4017 0.110446L27.2016 0.629348C27.5189 0.836372 27.609 1.26048 27.4028 1.5774Z" fill="#29315E"/>
<path d="M5.92657 4.98695C5.60965 4.7807 5.51832 4.35659 5.72496 4.0389L6.24388 3.2402C6.45091 2.92328 6.87385 2.83312 7.19194 3.03937C7.50963 3.24562 7.5994 3.66857 7.39354 3.98665L6.87386 4.78572C6.668 5.10264 6.24349 5.1932 5.92657 4.98695Z" fill="#29315E"/>
<path d="M18.7543 12.5795C21.4676 8.90062 24.181 5.22101 26.8947 1.5414C27.4547 0.781797 26.1854 0.0543089 25.6329 0.803852C22.9195 4.48346 20.2061 8.16268 17.492 11.8419C16.9324 12.6015 18.2009 13.329 18.7543 12.5795Z" fill="#29315E"/>
<path d="M18.3408 12.0048C14.5362 9.19899 10.7324 6.39353 6.92816 3.58768C6.16856 3.02736 5.44067 4.29697 6.19099 4.84955C9.99481 7.65501 13.7994 10.4609 17.6032 13.2663C18.3628 13.8267 19.0903 12.5574 18.3408 12.0048Z" fill="#29315E"/>
</svg>
