<svg width="51" height="46" viewBox="0 0 51 46" fill="none" xmlns="http://www.w3.org/2000/svg">
<path d="M3.01445 23.0538C3.10009 23.0569 3.19245 23.0584 3.29357 23.0584H46.8302C46.9308 23.0584 47.0232 23.0569 47.1088 23.0538C47.0366 23.0079 46.9571 22.9604 46.8699 22.9099L28.5103 12.304C27.6255 11.7928 26.3682 11.4997 25.0614 11.4997C23.7551 11.4997 22.4978 11.7928 21.6124 12.304L3.25281 22.9099C3.16614 22.9599 3.08668 23.0079 3.01445 23.0538ZM46.8302 25.3966H3.29357C1.42387 25.3966 0.335263 24.8745 0.05976 23.8457C-0.216259 22.8165 0.464771 21.8207 2.08425 20.8854L20.4439 10.2796C21.6919 9.55881 23.3315 9.16207 25.0614 9.16207C26.7913 9.16207 28.4314 9.55881 29.6794 10.2796L48.039 20.8854C49.6585 21.8202 50.3395 22.8165 50.064 23.8452C49.7885 24.8745 48.6999 25.3966 46.8302 25.3966Z" fill="#29315E"/>
<path d="M23.7958 10.9085C22.962 7.50342 22.6515 1.46403 26.7758 0.428577C28.3782 0.0261583 29.7841 0.557043 30.5373 1.8484C31.3932 3.31465 31.224 5.56871 30.1757 6.67175C29.474 7.41055 28.4587 7.56791 27.5269 7.08656L28.6006 5.01151L28.4736 5.06878C28.6883 4.89131 28.9338 3.84243 28.5552 3.09383C28.3916 2.77035 28.1295 2.49897 27.3453 2.69554C24.9205 3.30484 25.6273 8.55951 26.0658 10.3529L23.7958 10.9085Z" fill="#29315E"/>
<path d="M29.3068 11.8408C28.1475 11.0612 26.6519 10.6309 25.0613 10.6309C23.4717 10.6309 21.9766 11.0612 20.8184 11.8408H29.3068Z" fill="#29315E"/>
<path d="M45.7472 43.5008C45.7472 45.8952 4.2959 45.8952 4.2959 43.5008V25.9017C4.2959 23.5078 5.64453 21.5473 7.29341 21.5473H42.7502C44.397 21.5473 45.7472 23.5078 45.7472 25.9017V43.5008Z" fill="#F1F1F1"/>
<path d="M4.33789 35.5128V38.3695C4.33789 40.7639 45.7881 40.7639 45.7881 38.3695V35.5128C45.7881 37.9072 4.33789 37.9072 4.33789 35.5128Z" fill="#29315E"/>
</svg>
