<svg width="390" height="56" viewBox="0 0 390 56" fill="none" xmlns="http://www.w3.org/2000/svg">
<path d="M43.7593 29.1945V15.009H43.0707C42.8203 15.3889 42.549 15.7689 42.2568 16.1489C41.9647 16.4866 41.6725 16.8033 41.3804 17.0988C41.13 17.3521 40.8796 17.5843 40.6292 17.7954C40.4205 17.9643 40.2744 18.0487 40.1909 18.0487C40.1075 18.0487 39.7319 17.8165 39.0641 17.3521C38.3963 16.8877 37.4364 16.3811 36.1844 15.8322C34.9323 15.2834 33.3673 14.7768 31.4892 14.3123C29.6111 13.8479 27.42 13.6157 24.9159 13.6157C22.1614 13.6157 19.6781 13.9113 17.4662 14.5023C15.2542 15.0934 13.2718 15.8956 11.5189 16.9088C9.76602 17.8798 8.24269 19.0197 6.9489 20.3285C5.65511 21.6373 4.57 23.0094 3.69356 24.4449C2.94233 25.6692 2.3163 26.8936 1.81548 28.1179C1.35639 29.3 0.980776 30.4399 0.68863 31.5376C0.438219 32.6353 0.250411 33.6697 0.125205 34.6407C0.0417352 35.6118 0 36.4772 0 37.2372C0 40.6569 0.584292 43.8022 1.75288 46.6731C2.92146 49.5018 4.59087 51.9505 6.76109 54.0192C8.97306 56.0457 11.6441 57.6289 14.7742 58.7688C17.9044 59.8665 21.4101 60.4153 25.2915 60.4153C27.6287 60.4153 29.6946 60.2253 31.4892 59.8454C33.2838 59.4232 34.8071 58.9588 36.0592 58.4522C37.3112 57.9033 38.2711 57.4178 38.9389 56.9956C39.6067 56.5312 39.9823 56.299 40.0657 56.299C40.2744 56.299 40.65 56.5945 41.1926 57.1856C41.7351 57.7767 42.2568 58.4311 42.7577 59.1488H43.5089L43.6967 45.2165H42.9455C42.5699 47.032 41.8604 48.8051 40.817 50.5361C39.8153 52.2249 38.5633 53.7236 37.0608 55.0324C35.6001 56.3412 33.9098 57.3967 31.99 58.1988C30.1119 59.001 28.0878 59.4021 25.9175 59.4021C23.163 59.4021 20.6589 58.8321 18.4052 57.6922C16.1515 56.5523 14.2317 55.0113 12.6457 53.0693C11.0598 51.085 9.82863 48.7629 8.95219 46.1031C8.11749 43.4434 7.70013 40.5936 7.70013 37.5538C7.70013 34.6829 8.09662 31.8965 8.88959 29.1945C9.72429 26.4503 10.8929 24.0016 12.3953 21.8484C13.9395 19.6952 15.8385 17.9643 18.0922 16.6555C20.3459 15.3467 22.9126 14.6923 25.7923 14.6923C27.8791 14.6923 29.8406 15.0723 31.677 15.8322C33.5551 16.5922 35.2245 17.6265 36.6852 18.9353C38.1877 20.2441 39.4815 21.7851 40.5666 23.5583C41.6517 25.3315 42.4655 27.2313 43.0081 29.2578L43.7593 29.1945Z" fill="#666666"/>
<path d="M75.9601 53.9558H75.5845C75.4175 54.5891 75.1045 55.1169 74.6454 55.5391C74.1863 55.919 73.4769 56.109 72.5169 56.109C71.6822 56.109 70.931 55.8135 70.2632 55.2224C69.6372 54.5891 69.3242 53.3226 69.3242 51.4227C69.3242 49.9873 69.3242 48.6785 69.3242 47.4964C69.3659 46.272 69.3868 45.0899 69.3868 43.95C69.3868 42.8101 69.3868 41.6279 69.3868 40.4036C69.4285 39.1792 69.4494 37.8071 69.4494 36.2873C69.4494 35.5695 69.4285 34.8518 69.3868 34.1341C69.3451 33.3742 69.2407 32.8464 69.0738 32.5509C68.6564 31.7065 67.9678 31.0099 67.0079 30.4611C66.048 29.87 65.0255 29.5745 63.9404 29.5745C63.3978 29.5745 62.6883 29.7011 61.8119 29.9544C60.9772 30.2077 60.0381 30.5455 58.9947 30.9677C57.9931 31.3899 56.9289 31.8965 55.802 32.4876C54.6752 33.0786 53.5692 33.6908 52.4841 34.3241C52.1502 34.5352 51.7537 34.7674 51.2946 35.0207C50.8773 35.274 50.4808 35.5695 50.1052 35.9073C49.7295 36.245 49.4165 36.625 49.1661 37.0472C48.9157 37.4694 48.7905 37.9338 48.7905 38.4404C48.7905 39.0737 49.0201 39.6437 49.4791 40.1503C49.98 40.6147 50.5643 40.8469 51.232 40.8469C51.9415 40.8469 52.5884 40.6147 53.1727 40.1503C53.7987 39.6859 54.1117 39.1581 54.1117 38.5671V35.7173C54.1117 35.464 54.2578 35.1685 54.55 34.8307C54.8421 34.4507 55.2386 34.0919 55.7394 33.7541C56.2402 33.3742 56.8037 33.0786 57.4297 32.8675C58.0974 32.6142 58.7652 32.4876 59.433 32.4876C60.4346 32.4876 61.2484 32.6353 61.8745 32.9309C62.5005 33.1842 62.9805 33.4797 63.3143 33.8175C63.69 34.1552 63.9404 34.493 64.0656 34.8307C64.2325 35.1262 64.316 35.3162 64.316 35.4007V41.9235C63.8986 42.1768 63.3769 42.4723 62.7509 42.8101C62.1666 43.1056 61.478 43.4856 60.685 43.95C59.8921 44.3722 58.953 44.8999 57.8679 45.5332C56.8245 46.1665 55.6142 46.9264 54.2369 47.813C52.8597 48.6996 51.6911 49.6917 50.7312 50.7894C49.813 51.8871 49.3539 53.027 49.3539 54.2092C49.3539 55.3069 49.5209 56.2357 49.8548 56.9956C50.2304 57.7556 50.6895 58.3888 51.232 58.8955C51.8163 59.3599 52.4423 59.6976 53.1101 59.9087C53.8196 60.0776 54.5082 60.162 55.176 60.162C56.3028 60.162 57.3253 59.9931 58.2435 59.6554C59.2034 59.2754 60.059 58.7899 60.8102 58.1988C61.6032 57.6078 62.271 56.9745 62.8135 56.299C63.3978 55.6235 63.8569 55.0113 64.1908 54.4625L64.316 54.5258C64.316 56.6367 64.8585 58.1144 65.9437 58.9588C67.0705 59.8032 68.3434 60.2254 69.7624 60.2254C70.6389 60.2254 71.4318 60.0776 72.1413 59.7821C72.8926 59.4443 73.5395 58.9799 74.082 58.3888C74.6246 57.7555 75.0628 57.0589 75.3967 56.299C75.7305 55.5391 75.9184 54.758 75.9601 53.9558ZM64.316 52.6893C64.316 53.407 64.0656 53.9981 63.5648 54.4625C62.8553 55.1802 62.0832 55.6657 61.2485 55.919C60.4137 56.1723 59.4538 56.299 58.3687 56.299C57.1584 56.299 56.1776 55.8557 55.4264 54.9691C54.6752 54.0825 54.2995 53.0904 54.2995 51.9927C54.2995 50.895 54.6752 49.924 55.4264 49.0796C56.2194 48.193 57.1375 47.3908 58.1809 46.6731C59.266 45.9554 60.372 45.301 61.4989 44.7099C62.6257 44.0766 63.5648 43.4856 64.316 42.9367V52.6893Z" fill="#666666"/>
<path d="M98.0114 50.9161C98.0114 48.7629 97.3436 46.9475 96.0081 45.4699C94.7143 43.9922 93.1284 43.0212 91.2503 42.5568C90.4573 42.3457 89.5183 42.1346 88.4332 41.9235C87.3481 41.6702 86.3464 41.438 85.4283 41.2269C84.0927 40.8891 82.9868 40.3825 82.1103 39.707C81.2339 39.0315 80.7957 37.9127 80.7957 36.3506C80.7957 35.3796 80.9626 34.5352 81.2965 33.8175C81.6304 33.0575 82.0477 32.4453 82.5485 31.9809C83.0911 31.4743 83.6963 31.0943 84.364 30.841C85.0735 30.5877 85.783 30.4611 86.4925 30.4611C87.6611 30.4611 88.6836 30.6722 89.56 31.0943C90.4782 31.5165 91.292 32.1287 92.0015 32.9309C92.711 33.6908 93.3579 34.6196 93.9422 35.7173C94.5265 36.7728 95.1108 37.9338 95.6951 39.2004L96.1959 39.0737L95.4447 31.221C94.2344 30.7566 92.9615 30.3766 91.6259 30.0811C90.2904 29.7433 88.7462 29.5745 86.9933 29.5745C85.6161 29.5745 84.3223 29.7856 83.112 30.2077C81.9016 30.5877 80.8374 31.1577 79.9192 31.9176C79.0011 32.6775 78.2707 33.5853 77.7281 34.6407C77.1856 35.6962 76.9143 36.8783 76.9143 38.1871C76.9143 40.087 77.3942 41.7124 78.3542 43.0634C79.3558 44.4144 80.6496 45.3643 82.2355 45.9132C83.0702 46.2087 84.0093 46.4831 85.0526 46.7364C86.096 46.9897 87.1811 47.2219 88.308 47.433C89.727 47.7286 90.833 48.3196 91.6259 49.2062C92.4606 50.0506 92.878 51.1272 92.878 52.436C92.878 54.8424 92.2728 56.6367 91.0625 57.8189C89.8939 58.9588 88.308 59.5287 86.3047 59.5287C84.9274 59.5287 83.738 59.2332 82.7363 58.6421C81.7347 58.0089 80.8791 57.2278 80.1696 56.299C79.4601 55.328 78.855 54.2936 78.3542 53.1959C77.8533 52.056 77.436 50.9794 77.1021 49.9662H76.6013V58.3255C77.9785 58.9588 79.481 59.4443 81.1087 59.7821C82.7363 60.1198 84.4684 60.2887 86.3047 60.2887C87.8489 60.2887 89.3096 60.1198 90.6869 59.7821C92.1059 59.4443 93.3579 58.8955 94.4431 58.1355C95.5282 57.3756 96.3837 56.4045 97.0098 55.2224C97.6775 53.9981 98.0114 52.5626 98.0114 50.9161Z" fill="#666666"/>
<path d="M127.925 53.9558H127.55C127.383 54.5891 127.07 55.1169 126.611 55.5391C126.151 55.919 125.442 56.109 124.482 56.109C123.647 56.109 122.896 55.8135 122.228 55.2224C121.602 54.5891 121.289 53.3226 121.289 51.4227C121.289 49.9873 121.289 48.6785 121.289 47.4964C121.331 46.272 121.352 45.0899 121.352 43.95C121.352 42.8101 121.352 41.6279 121.352 40.4036C121.394 39.1792 121.415 37.8071 121.415 36.2873C121.415 35.5695 121.394 34.8518 121.352 34.1341C121.31 33.3742 121.206 32.8464 121.039 32.5509C120.622 31.7065 119.933 31.0099 118.973 30.4611C118.013 29.87 116.991 29.5745 115.906 29.5745C115.363 29.5745 114.653 29.7011 113.777 29.9544C112.942 30.2077 112.003 30.5455 110.96 30.9677C109.958 31.3899 108.894 31.8965 107.767 32.4876C106.64 33.0786 105.534 33.6908 104.449 34.3241C104.115 34.5352 103.719 34.7674 103.26 35.0207C102.842 35.274 102.446 35.5695 102.07 35.9073C101.695 36.245 101.382 36.625 101.131 37.0472C100.881 37.4694 100.756 37.9338 100.756 38.4404C100.756 39.0737 100.985 39.6437 101.444 40.1503C101.945 40.6147 102.529 40.8469 103.197 40.8469C103.907 40.8469 104.554 40.6147 105.138 40.1503C105.764 39.6859 106.077 39.1581 106.077 38.5671V35.7173C106.077 35.464 106.223 35.1685 106.515 34.8307C106.807 34.4507 107.204 34.0919 107.705 33.7541C108.205 33.3742 108.769 33.0786 109.395 32.8675C110.063 32.6142 110.73 32.4876 111.398 32.4876C112.4 32.4876 113.214 32.6353 113.84 32.9309C114.466 33.1842 114.946 33.4797 115.279 33.8175C115.655 34.1552 115.906 34.493 116.031 34.8307C116.198 35.1262 116.281 35.3162 116.281 35.4007V41.9235C115.864 42.1768 115.342 42.4723 114.716 42.8101C114.132 43.1056 113.443 43.4856 112.65 43.95C111.857 44.3722 110.918 44.8999 109.833 45.5332C108.79 46.1665 107.579 46.9264 106.202 47.813C104.825 48.6996 103.656 49.6917 102.696 50.7894C101.778 51.8871 101.319 53.027 101.319 54.2092C101.319 55.3069 101.486 56.2357 101.82 56.9956C102.196 57.7556 102.655 58.3888 103.197 58.8955C103.781 59.3599 104.407 59.6976 105.075 59.9087C105.785 60.0776 106.473 60.162 107.141 60.162C108.268 60.162 109.29 59.9931 110.209 59.6554C111.169 59.2754 112.024 58.7899 112.775 58.1988C113.568 57.6078 114.236 56.9745 114.779 56.299C115.363 55.6235 115.822 55.0113 116.156 54.4625L116.281 54.5258C116.281 56.6367 116.824 58.1144 117.909 58.9588C119.036 59.8032 120.309 60.2254 121.728 60.2254C122.604 60.2254 123.397 60.0776 124.106 59.7821C124.858 59.4443 125.505 58.9799 126.047 58.3888C126.59 57.7555 127.028 57.0589 127.362 56.299C127.696 55.5391 127.884 54.758 127.925 53.9558ZM116.281 52.6893C116.281 53.407 116.031 53.9981 115.53 54.4625C114.82 55.1802 114.048 55.6657 113.214 55.919C112.379 56.1723 111.419 56.299 110.334 56.299C109.124 56.299 108.143 55.8557 107.392 54.9691C106.64 54.0825 106.265 53.0904 106.265 51.9927C106.265 50.895 106.64 49.924 107.392 49.0796C108.185 48.193 109.103 47.3908 110.146 46.6731C111.231 45.9554 112.337 45.301 113.464 44.7099C114.591 44.0766 115.53 43.4856 116.281 42.9367V52.6893Z" fill="#666666"/>
<path d="M184.656 47.1164L184.03 46.9264C183.529 48.193 183.007 49.4173 182.465 50.5995C181.922 51.7394 181.255 52.8159 180.462 53.8292C179.669 54.8002 178.709 55.6657 177.582 56.4257C176.497 57.1856 175.12 57.7978 173.45 58.2622C172.741 58.4733 171.927 58.6421 171.009 58.7688C170.09 58.8955 169.193 59.001 168.317 59.0854C167.44 59.1277 166.626 59.1699 165.875 59.2121C165.166 59.2121 164.644 59.2121 164.31 59.2121C163.475 59.2121 162.641 59.1699 161.806 59.0854C160.971 58.9588 160.199 58.8321 159.49 58.7055C158.78 58.5366 158.175 58.3466 157.674 58.1355C157.173 57.9244 156.84 57.7133 156.673 57.5022C156.297 56.9112 156.067 56.0035 155.984 54.7791C155.942 53.5548 155.9 52.2671 155.859 50.9161C155.859 49.4806 155.838 48.193 155.796 47.0531C155.796 45.8709 155.796 44.731 155.796 43.6333C155.796 42.5357 155.796 41.4169 155.796 40.2769C155.796 39.0948 155.796 37.786 155.796 36.3506C155.796 34.7885 155.796 33.3742 155.796 32.1076C155.796 30.841 155.796 29.6167 155.796 28.4346C155.838 27.2524 155.859 26.0492 155.859 24.8248C155.9 23.6005 155.942 22.2495 155.984 20.7718C156.026 19.6319 156.276 18.7242 156.735 18.0487C157.236 17.331 157.82 16.7821 158.488 16.4022C159.156 16.0222 159.865 15.7478 160.617 15.5789C161.368 15.41 162.015 15.2834 162.557 15.1989V14.5657H142.587V15.1989C143.672 15.3256 144.695 15.5789 145.655 15.9589C146.656 16.3389 147.449 16.8877 148.033 17.6054C148.284 17.9009 148.472 18.302 148.597 18.8087C148.722 19.3153 148.806 19.9063 148.847 20.5818C148.931 21.2151 148.972 21.9117 148.972 22.6717C148.972 23.3894 148.972 24.1282 148.972 24.8882V37.1739C148.972 38.3138 148.972 39.5381 148.972 40.8469C148.972 42.1135 148.952 43.3589 148.91 44.5833C148.91 45.7654 148.889 46.8631 148.847 47.8763C148.847 48.8896 148.847 49.6917 148.847 50.2828C148.847 50.9583 148.806 51.6549 148.722 52.3726C148.68 53.0481 148.618 53.7025 148.534 54.3358C148.451 54.9691 148.326 55.5391 148.159 56.0457C148.033 56.5101 147.866 56.869 147.658 57.1223C147.074 57.7978 146.26 58.3255 145.216 58.7055C144.215 59.0854 143.192 59.3599 142.149 59.5287V60.162H182.34L184.656 47.1164Z" fill="#666666"/>
<path d="M213.454 53.9558H213.078C212.911 54.5891 212.598 55.1169 212.139 55.5391C211.68 55.919 210.971 56.109 210.011 56.109C209.176 56.109 208.425 55.8135 207.757 55.2224C207.131 54.5891 206.818 53.3226 206.818 51.4227C206.818 49.9873 206.818 48.6785 206.818 47.4964C206.86 46.272 206.88 45.0899 206.88 43.95C206.88 42.8101 206.88 41.6279 206.88 40.4036C206.922 39.1792 206.943 37.8071 206.943 36.2873C206.943 35.5695 206.922 34.8518 206.88 34.1341C206.839 33.3742 206.734 32.8464 206.567 32.5509C206.15 31.7065 205.461 31.0099 204.502 30.4611C203.542 29.87 202.519 29.5745 201.434 29.5745C200.891 29.5745 200.182 29.7011 199.306 29.9544C198.471 30.2077 197.532 30.5455 196.488 30.9677C195.487 31.3899 194.423 31.8965 193.296 32.4876C192.169 33.0786 191.063 33.6908 189.978 34.3241C189.644 34.5352 189.247 34.7674 188.788 35.0207C188.371 35.274 187.974 35.5695 187.599 35.9073C187.223 36.245 186.91 36.625 186.66 37.0472C186.409 37.4694 186.284 37.9338 186.284 38.4404C186.284 39.0737 186.514 39.6437 186.973 40.1503C187.474 40.6147 188.058 40.8469 188.726 40.8469C189.435 40.8469 190.082 40.6147 190.666 40.1503C191.292 39.6859 191.605 39.1581 191.605 38.5671V35.7173C191.605 35.464 191.751 35.1685 192.044 34.8307C192.336 34.4507 192.732 34.0919 193.233 33.7541C193.734 33.3742 194.297 33.0786 194.923 32.8675C195.591 32.6142 196.259 32.4876 196.927 32.4876C197.928 32.4876 198.742 32.6353 199.368 32.9309C199.994 33.1842 200.474 33.4797 200.808 33.8175C201.184 34.1552 201.434 34.493 201.559 34.8307C201.726 35.1262 201.81 35.3162 201.81 35.4007V41.9235C201.392 42.1768 200.871 42.4723 200.245 42.8101C199.66 43.1056 198.972 43.4856 198.179 43.95C197.386 44.3722 196.447 44.8999 195.362 45.5332C194.318 46.1665 193.108 46.9264 191.731 47.813C190.353 48.6996 189.185 49.6917 188.225 50.7894C187.307 51.8871 186.848 53.027 186.848 54.2092C186.848 55.3069 187.015 56.2357 187.348 56.9956C187.724 57.7556 188.183 58.3888 188.726 58.8955C189.31 59.3599 189.936 59.6976 190.604 59.9087C191.313 60.0776 192.002 60.162 192.67 60.162C193.796 60.162 194.819 59.9931 195.737 59.6554C196.697 59.2754 197.553 58.7899 198.304 58.1988C199.097 57.6078 199.765 56.9745 200.307 56.299C200.891 55.6235 201.351 55.0113 201.684 54.4625L201.81 54.5258C201.81 56.6367 202.352 58.1144 203.437 58.9588C204.564 59.8032 205.837 60.2254 207.256 60.2254C208.133 60.2254 208.925 60.0776 209.635 59.7821C210.386 59.4443 211.033 58.9799 211.576 58.3888C212.118 57.7555 212.556 57.0589 212.89 56.299C213.224 55.5391 213.412 54.758 213.454 53.9558ZM201.81 52.6893C201.81 53.407 201.559 53.9981 201.058 54.4625C200.349 55.1802 199.577 55.6657 198.742 55.919C197.907 56.1723 196.948 56.299 195.862 56.299C194.652 56.299 193.671 55.8557 192.92 54.9691C192.169 54.0825 191.793 53.0904 191.793 51.9927C191.793 50.895 192.169 49.924 192.92 49.0796C193.713 48.193 194.631 47.3908 195.675 46.6731C196.76 45.9554 197.866 45.301 198.993 44.7099C200.119 44.0766 201.058 43.4856 201.81 42.9367V52.6893Z" fill="#666666"/>
<path d="M270.185 47.1164L269.559 46.9264C269.058 48.193 268.536 49.4173 267.993 50.5995C267.451 51.7394 266.783 52.8159 265.99 53.8292C265.197 54.8002 264.237 55.6657 263.11 56.4257C262.025 57.1856 260.648 57.7978 258.979 58.2622C258.269 58.4733 257.455 58.6421 256.537 58.7688C255.619 58.8955 254.722 59.001 253.845 59.0854C252.969 59.1277 252.155 59.1699 251.404 59.2121C250.694 59.2121 250.173 59.2121 249.839 59.2121C249.004 59.2121 248.169 59.1699 247.335 59.0854C246.5 58.9588 245.728 58.8321 245.018 58.7055C244.309 58.5366 243.704 58.3466 243.203 58.1355C242.702 57.9244 242.368 57.7133 242.201 57.5022C241.826 56.9112 241.596 56.0035 241.512 54.7791C241.471 53.5548 241.429 52.2671 241.387 50.9161C241.387 49.4806 241.366 48.193 241.325 47.0531C241.325 45.8709 241.325 44.731 241.325 43.6333C241.325 42.5357 241.325 41.4169 241.325 40.2769C241.325 39.0948 241.325 37.786 241.325 36.3506C241.325 34.7885 241.325 33.3742 241.325 32.1076C241.325 30.841 241.325 29.6167 241.325 28.4346C241.366 27.2524 241.387 26.0492 241.387 24.8248C241.429 23.6005 241.471 22.2495 241.512 20.7718C241.554 19.6319 241.805 18.7242 242.264 18.0487C242.765 17.331 243.349 16.7821 244.017 16.4022C244.684 16.0222 245.394 15.7478 246.145 15.5789C246.896 15.41 247.543 15.2834 248.086 15.1989V14.5657H228.116V15.1989C229.201 15.3256 230.223 15.5789 231.183 15.9589C232.185 16.3389 232.978 16.8877 233.562 17.6054C233.812 17.9009 234 18.302 234.125 18.8087C234.251 19.3153 234.334 19.9063 234.376 20.5818C234.459 21.2151 234.501 21.9117 234.501 22.6717C234.501 23.3894 234.501 24.1282 234.501 24.8882V37.1739C234.501 38.3138 234.501 39.5381 234.501 40.8469C234.501 42.1135 234.48 43.3589 234.438 44.5833C234.438 45.7654 234.418 46.8631 234.376 47.8763C234.376 48.8896 234.376 49.6917 234.376 50.2828C234.376 50.9583 234.334 51.6549 234.251 52.3726C234.209 53.0481 234.146 53.7025 234.063 54.3358C233.979 54.9691 233.854 55.5391 233.687 56.0457C233.562 56.5101 233.395 56.869 233.186 57.1223C232.602 57.7978 231.788 58.3255 230.745 58.7055C229.743 59.0854 228.721 59.3599 227.677 59.5287V60.162H267.868L270.185 47.1164Z" fill="#666666"/>
<path d="M301.549 58.5788V58.1988C301.048 57.9878 300.422 57.7133 299.671 57.3756C298.961 57.0378 298.419 56.7634 298.043 56.5523C297.751 56.3412 297.563 56.1512 297.48 55.9824C297.438 55.8135 297.417 55.5602 297.417 55.2224V30.2077H286.9V30.9044C287.818 30.9888 288.695 31.0943 289.529 31.221C290.406 31.3477 291.094 31.5165 291.595 31.7276C291.846 32.0654 292.013 32.572 292.096 33.2475C292.179 33.8808 292.221 34.4085 292.221 34.8307V52.8793C291.846 53.3859 291.428 53.8714 290.969 54.3358C290.552 54.8002 290.072 55.2224 289.529 55.6024C289.028 55.9401 288.444 56.2357 287.776 56.489C287.15 56.7001 286.399 56.8056 285.523 56.8056C283.227 56.8056 281.662 56.1512 280.827 54.8424C279.993 53.4914 279.575 51.4227 279.575 48.6363V30.2077H269.872V30.9044C270.248 30.9466 270.644 30.9888 271.061 31.031C271.479 31.031 271.875 31.0732 272.251 31.1577C272.627 31.2421 272.96 31.3688 273.253 31.5376C273.586 31.7065 273.837 31.9809 274.004 32.3609C274.087 32.4876 274.129 32.6987 274.129 32.9942C274.171 33.2475 274.212 33.543 274.254 33.8808C274.296 34.1763 274.317 34.4719 274.317 34.7674C274.317 35.0629 274.317 35.2951 274.317 35.464V50.9161C274.317 53.9981 274.943 56.3412 276.195 57.9455C277.489 59.5498 279.471 60.352 282.142 60.352C283.311 60.352 284.396 60.162 285.397 59.7821C286.441 59.4021 287.38 58.8955 288.215 58.2622C289.049 57.5867 289.801 56.8478 290.468 56.0457C291.136 55.2435 291.699 54.4836 292.159 53.7659L292.221 53.8292V60.2254H292.659L301.549 58.5788Z" fill="#666666"/>
<path d="M334.693 60.162V59.5921C334.318 59.5499 333.9 59.5076 333.441 59.4654C333.024 59.381 332.627 59.2965 332.252 59.2121C331.876 59.0854 331.542 58.9166 331.25 58.7055C331 58.4944 330.874 58.2411 330.874 57.9455V39.327C330.874 36.4561 330.228 34.113 328.934 32.2976C327.64 30.4822 325.783 29.5745 323.362 29.5745C322.235 29.5745 321.15 29.8067 320.107 30.2711C319.063 30.6933 318.103 31.2421 317.227 31.9176C316.351 32.5931 315.558 33.3531 314.848 34.1974C314.18 34.9996 313.617 35.7595 313.158 36.4772L313.033 36.4139V29.5745H312.657L304.456 32.5509V32.9309C304.957 33.142 305.458 33.3953 305.959 33.6908C306.459 33.9441 306.898 34.1763 307.273 34.3874C307.565 34.5985 307.732 34.7885 307.774 34.9574C307.858 35.1262 307.899 35.3796 307.899 35.7173V57.5022C307.899 58.1777 307.544 58.6632 306.835 58.9588C306.167 59.2543 305.353 59.4443 304.393 59.5287V60.162H316.476V59.5287C316.058 59.4443 315.662 59.4021 315.286 59.4021C314.911 59.3599 314.577 59.2965 314.285 59.2121C313.993 59.1277 313.742 59.001 313.533 58.8321C313.325 58.621 313.179 58.3044 313.095 57.8822V37.1105C314.222 35.9706 315.245 35.1051 316.163 34.5141C317.081 33.923 318.229 33.6275 319.606 33.6275C321.776 33.6275 323.32 34.3874 324.239 35.9073C325.157 37.3849 325.616 39.3481 325.616 41.7968V57.7555C325.616 58.431 325.282 58.8743 324.614 59.0854C323.946 59.2543 323.049 59.381 321.922 59.4654V60.162H334.693Z" fill="#666666"/>
<path d="M364.397 53.9558H364.022C363.855 54.5891 363.542 55.1169 363.083 55.5391C362.623 55.919 361.914 56.109 360.954 56.109C360.119 56.109 359.368 55.8135 358.7 55.2224C358.074 54.5891 357.761 53.3226 357.761 51.4227C357.761 49.9873 357.761 48.6785 357.761 47.4964C357.803 46.272 357.824 45.0899 357.824 43.95C357.824 42.8101 357.824 41.6279 357.824 40.4036C357.866 39.1792 357.887 37.8071 357.887 36.2873C357.887 35.5695 357.866 34.8518 357.824 34.1341C357.782 33.3742 357.678 32.8464 357.511 32.5509C357.094 31.7065 356.405 31.0099 355.445 30.4611C354.485 29.87 353.463 29.5745 352.378 29.5745C351.835 29.5745 351.125 29.7011 350.249 29.9544C349.414 30.2077 348.475 30.5455 347.432 30.9677C346.43 31.3899 345.366 31.8965 344.239 32.4876C343.112 33.0786 342.006 33.6908 340.921 34.3241C340.587 34.5352 340.191 34.7674 339.732 35.0207C339.314 35.274 338.918 35.5695 338.542 35.9073C338.167 36.245 337.854 36.625 337.603 37.0472C337.353 37.4694 337.228 37.9338 337.228 38.4404C337.228 39.0737 337.457 39.6437 337.916 40.1503C338.417 40.6147 339.001 40.8469 339.669 40.8469C340.379 40.8469 341.026 40.6147 341.61 40.1503C342.236 39.6859 342.549 39.1581 342.549 38.5671V35.7173C342.549 35.464 342.695 35.1685 342.987 34.8307C343.279 34.4507 343.676 34.0919 344.177 33.7541C344.677 33.3742 345.241 33.0786 345.867 32.8675C346.535 32.6142 347.202 32.4876 347.87 32.4876C348.872 32.4876 349.686 32.6353 350.312 32.9309C350.938 33.1842 351.418 33.4797 351.751 33.8175C352.127 34.1552 352.378 34.493 352.503 34.8307C352.67 35.1262 352.753 35.3162 352.753 35.4007V41.9235C352.336 42.1768 351.814 42.4723 351.188 42.8101C350.604 43.1056 349.915 43.4856 349.122 43.95C348.329 44.3722 347.39 44.8999 346.305 45.5332C345.262 46.1665 344.051 46.9264 342.674 47.813C341.297 48.6996 340.128 49.6917 339.168 50.7894C338.25 51.8871 337.791 53.027 337.791 54.2092C337.791 55.3069 337.958 56.2357 338.292 56.9956C338.668 57.7556 339.127 58.3888 339.669 58.8955C340.253 59.3599 340.879 59.6976 341.547 59.9087C342.257 60.0776 342.945 60.162 343.613 60.162C344.74 60.162 345.762 59.9931 346.681 59.6554C347.641 59.2754 348.496 58.7899 349.247 58.1988C350.04 57.6078 350.708 56.9745 351.251 56.299C351.835 55.6235 352.294 55.0113 352.628 54.4625L352.753 54.5258C352.753 56.6367 353.296 58.1144 354.381 58.9588C355.508 59.8032 356.781 60.2254 358.2 60.2254C359.076 60.2254 359.869 60.0776 360.578 59.7821C361.33 59.4443 361.977 58.9799 362.519 58.3888C363.062 57.7555 363.5 57.0589 363.834 56.299C364.168 55.5391 364.355 54.758 364.397 53.9558ZM352.753 52.6893C352.753 53.407 352.503 53.9981 352.002 54.4625C351.292 55.1802 350.52 55.6657 349.686 55.919C348.851 56.1723 347.891 56.299 346.806 56.299C345.596 56.299 344.615 55.8557 343.864 54.9691C343.112 54.0825 342.737 53.0904 342.737 51.9927C342.737 50.895 343.112 49.924 343.864 49.0796C344.656 48.193 345.575 47.3908 346.618 46.6731C347.703 45.9554 348.809 45.301 349.936 44.7099C351.063 44.0766 352.002 43.4856 352.753 42.9367V52.6893Z" fill="#666666"/>
<path d="M390 16.1774C387.623 18.3187 384.49 19.6198 381.057 19.6198C373.626 19.6198 367.603 13.5267 367.603 6.01046C367.603 3.85289 368.099 1.81258 368.983 0C366.216 2.49264 364.473 6.1239 364.473 10.1669C364.473 17.6831 370.496 23.7762 377.926 23.7762C383.224 23.7762 387.806 20.6792 390 16.1774Z" fill="#666666"/>
<path d="M122.138 80.7434V91.8259H120.103V87.0762H114.438V91.8259H112.403V80.7434H114.438V85.3189H120.103V80.7434H122.138Z" fill="#666666"/>
<path d="M130.191 91.9842C129.075 91.9842 128.068 91.7414 127.171 91.2559C126.273 90.7598 125.569 90.079 125.058 89.2136C124.547 88.3375 124.291 87.3612 124.291 86.2846C124.291 85.208 124.547 84.237 125.058 83.3715C125.569 82.4955 126.273 81.8147 127.171 81.3292C128.068 80.8331 129.075 80.5851 130.191 80.5851C131.308 80.5851 132.315 80.8331 133.212 81.3292C134.109 81.8147 134.813 82.4902 135.325 83.3557C135.836 84.2212 136.092 85.1975 136.092 86.2846C136.092 87.3718 135.836 88.3481 135.325 89.2136C134.813 90.079 134.109 90.7598 133.212 91.2559C132.315 91.7414 131.308 91.9842 130.191 91.9842ZM130.191 90.1793C130.922 90.1793 131.579 90.0157 132.163 89.6885C132.748 89.3508 133.207 88.8864 133.541 88.2953C133.874 87.6937 134.041 87.0235 134.041 86.2846C134.041 85.5458 133.874 84.8809 133.541 84.2898C133.207 83.6882 132.748 83.2238 132.163 82.8966C131.579 82.5588 130.922 82.3899 130.191 82.3899C129.461 82.3899 128.804 82.5588 128.219 82.8966C127.635 83.2238 127.176 83.6882 126.842 84.2898C126.508 84.8809 126.341 85.5458 126.341 86.2846C126.341 87.0235 126.508 87.6937 126.842 88.2953C127.176 88.8864 127.635 89.3508 128.219 89.6885C128.804 90.0157 129.461 90.1793 130.191 90.1793Z" fill="#666666"/>
<path d="M140.318 82.4849H136.687V80.7434H145.983V82.4849H142.352V91.8259H140.318V82.4849Z" fill="#666666"/>
<path d="M155.727 90.1002V91.8259H147.51V80.7434H155.508V82.4691H149.545V85.3505H154.835V87.0446H149.545V90.1002H155.727Z" fill="#666666"/>
<path d="M157.995 80.7434H160.03V90.0843H165.758V91.8259H157.995V80.7434Z" fill="#666666"/>
<path d="M179.906 92L178.529 90.6543C177.506 91.5409 176.28 91.9842 174.851 91.9842C174.089 91.9842 173.406 91.8575 172.801 91.6042C172.195 91.3509 171.721 91.0026 171.376 90.5593C171.032 90.1054 170.86 89.5935 170.86 89.0236C170.86 88.3375 171.058 87.7359 171.455 87.2187C171.851 86.691 172.498 86.1738 173.395 85.6672C172.957 85.2239 172.644 84.8122 172.456 84.4323C172.268 84.0417 172.174 83.6407 172.174 83.229C172.174 82.448 172.461 81.82 173.035 81.345C173.62 80.8595 174.392 80.6167 175.352 80.6167C176.238 80.6167 176.948 80.8384 177.48 81.2817C178.012 81.7144 178.278 82.3055 178.278 83.0549C178.278 83.6248 178.101 84.1315 177.746 84.5748C177.402 85.0181 176.833 85.4666 176.04 85.9205L178.403 88.2003C178.664 87.6831 178.868 87.0604 179.014 86.3321L180.595 86.8546C180.386 87.8362 180.057 88.6805 179.609 89.3877L180.986 90.7176L179.906 92ZM175.352 82.0258C174.924 82.0258 174.585 82.1366 174.334 82.3583C174.084 82.5694 173.959 82.8491 173.959 83.1974C173.959 83.4507 174.026 83.6934 174.162 83.9257C174.298 84.1473 174.559 84.4534 174.945 84.8439C175.571 84.4956 176.004 84.1948 176.244 83.9415C176.494 83.6776 176.619 83.3926 176.619 83.0866C176.619 82.7594 176.505 82.5008 176.275 82.3108C176.056 82.1208 175.748 82.0258 175.352 82.0258ZM174.992 90.3693C175.899 90.3693 176.692 90.0896 177.371 89.5302L174.475 86.7279C173.849 87.0762 173.406 87.414 173.145 87.7412C172.894 88.0578 172.769 88.4167 172.769 88.8178C172.769 89.2822 172.973 89.6569 173.38 89.9418C173.787 90.2268 174.324 90.3693 174.992 90.3693Z" fill="#666666"/>
<path d="M194.233 91.8259L191.995 88.5803C191.901 88.5908 191.76 88.5961 191.572 88.5961H189.099V91.8259H187.065V80.7434H191.572C192.522 80.7434 193.346 80.9017 194.045 81.2184C194.755 81.535 195.297 81.9889 195.673 82.5799C196.048 83.171 196.236 83.8729 196.236 84.6856C196.236 85.5194 196.033 86.2371 195.626 86.8388C195.229 87.4404 194.655 87.8889 193.904 88.1845L196.424 91.8259H194.233ZM194.186 84.6856C194.186 83.9784 193.956 83.4349 193.497 83.0549C193.038 82.6749 192.365 82.4849 191.478 82.4849H189.099V86.9021H191.478C192.365 86.9021 193.038 86.7121 193.497 86.3321C193.956 85.9416 194.186 85.3928 194.186 84.6856Z" fill="#666666"/>
<path d="M206.729 90.1002V91.8259H198.512V80.7434H206.51V82.4691H200.547V85.3505H205.837V87.0446H200.547V90.1002H206.729Z" fill="#666666"/>
<path d="M212.393 91.9842C211.548 91.9842 210.729 91.8628 209.936 91.62C209.154 91.3773 208.533 91.0554 208.074 90.6543L208.778 89.0552C209.227 89.4141 209.775 89.7096 210.421 89.9418C211.079 90.1635 211.736 90.2743 212.393 90.2743C213.207 90.2743 213.812 90.1424 214.209 89.8785C214.616 89.6146 214.819 89.2663 214.819 88.8336C214.819 88.5169 214.705 88.2584 214.475 88.0578C214.256 87.8467 213.974 87.6831 213.63 87.567C213.286 87.4509 212.816 87.319 212.221 87.1712C211.387 86.9707 210.708 86.7701 210.187 86.5696C209.675 86.3691 209.232 86.0577 208.856 85.6355C208.491 85.2028 208.309 84.6223 208.309 83.894C208.309 83.2818 208.47 82.7277 208.794 82.2316C209.128 81.725 209.623 81.3239 210.281 81.0284C210.948 80.7328 211.762 80.5851 212.722 80.5851C213.39 80.5851 214.047 80.6695 214.694 80.8384C215.341 81.0073 215.899 81.25 216.369 81.5667L215.727 83.1657C215.247 82.8807 214.746 82.6644 214.225 82.5166C213.703 82.3688 213.197 82.2949 212.706 82.2949C211.903 82.2949 211.303 82.4322 210.907 82.7066C210.521 82.981 210.328 83.3451 210.328 83.799C210.328 84.1156 210.437 84.3742 210.656 84.5748C210.886 84.7753 211.173 84.9336 211.517 85.0497C211.861 85.1658 212.331 85.2978 212.926 85.4455C213.739 85.6355 214.407 85.8361 214.929 86.0471C215.451 86.2477 215.894 86.5591 216.259 86.9812C216.635 87.4034 216.823 87.9734 216.823 88.6911C216.823 89.3033 216.656 89.8574 216.322 90.3535C215.998 90.8495 215.503 91.2453 214.835 91.5409C214.167 91.8364 213.353 91.9842 212.393 91.9842Z" fill="#666666"/>
<path d="M223.958 91.9842C222.841 91.9842 221.835 91.7414 220.937 91.2559C220.04 90.7598 219.336 90.079 218.824 89.2136C218.313 88.3375 218.058 87.3612 218.058 86.2846C218.058 85.208 218.313 84.237 218.824 83.3715C219.336 82.4955 220.04 81.8147 220.937 81.3292C221.835 80.8331 222.841 80.5851 223.958 80.5851C225.074 80.5851 226.081 80.8331 226.978 81.3292C227.876 81.8147 228.58 82.4902 229.091 83.3557C229.603 84.2212 229.858 85.1975 229.858 86.2846C229.858 87.3718 229.603 88.3481 229.091 89.2136C228.58 90.079 227.876 90.7598 226.978 91.2559C226.081 91.7414 225.074 91.9842 223.958 91.9842ZM223.958 90.1793C224.688 90.1793 225.346 90.0157 225.93 89.6885C226.514 89.3508 226.973 88.8864 227.307 88.2953C227.641 87.6937 227.808 87.0235 227.808 86.2846C227.808 85.5458 227.641 84.8809 227.307 84.2898C226.973 83.6882 226.514 83.2238 225.93 82.8966C225.346 82.5588 224.688 82.3899 223.958 82.3899C223.227 82.3899 222.57 82.5588 221.986 82.8966C221.402 83.2238 220.942 83.6882 220.609 84.2898C220.275 84.8809 220.108 85.5458 220.108 86.2846C220.108 87.0235 220.275 87.6937 220.609 88.2953C220.942 88.8864 221.402 89.3508 221.986 89.6885C222.57 90.0157 223.227 90.1793 223.958 90.1793Z" fill="#666666"/>
<path d="M239.183 91.8259L236.945 88.5803C236.851 88.5908 236.71 88.5961 236.522 88.5961H234.049V91.8259H232.015V80.7434H236.522C237.472 80.7434 238.296 80.9017 238.995 81.2184C239.704 81.535 240.247 81.9889 240.623 82.5799C240.998 83.171 241.186 83.8729 241.186 84.6856C241.186 85.5194 240.983 86.2371 240.576 86.8388C240.179 87.4404 239.605 87.8889 238.854 88.1845L241.374 91.8259H239.183ZM239.136 84.6856C239.136 83.9784 238.906 83.4349 238.447 83.0549C237.988 82.6749 237.315 82.4849 236.428 82.4849H234.049V86.9021H236.428C237.315 86.9021 237.988 86.7121 238.447 86.3321C238.906 85.9416 239.136 85.3928 239.136 84.6856Z" fill="#666666"/>
<path d="M245.532 82.4849H241.901V80.7434H251.197V82.4849H247.567V91.8259H245.532V82.4849Z" fill="#666666"/>
</svg>
