<svg xmlns="http://www.w3.org/2000/svg" xmlns:xlink="http://www.w3.org/1999/xlink" version="1.1" width="256" height="256" viewBox="0 0 256 256" xml:space="preserve">

<defs>
</defs>
<g style="stroke: none; stroke-width: 0; stroke-dasharray: none; stroke-linecap: butt; stroke-linejoin: miter; stroke-miterlimit: 10; fill: none; fill-rule: nonzero; opacity: 1;" transform="translate(1.4065934065934016 1.4065934065934016) scale(2.81 2.81)" >
	<path d="M 78.041 23.05 H 11.959 V 5.962 C 11.959 3.221 14.18 1 16.92 1 H 73.08 c 2.74 0 4.962 2.221 4.962 4.962 V 23.05 z" style="stroke: none; stroke-width: 1; stroke-dasharray: none; stroke-linecap: butt; stroke-linejoin: miter; stroke-miterlimit: 10; fill: rgb(240,199,100); fill-rule: nonzero; opacity: 1;" transform=" matrix(1 0 0 1 0 0) " stroke-linecap="round" />
	<rect x="7.86" y="31.48" rx="0" ry="0" width="74.28" height="49.08" style="stroke: none; stroke-width: 1; stroke-dasharray: none; stroke-linecap: butt; stroke-linejoin: miter; stroke-miterlimit: 10; fill: rgb(233,92,102); fill-rule: nonzero; opacity: 1;" transform=" matrix(1 0 0 1 0 0) "/>
	<path d="M 86.577 89 H 3.423 v -4.817 c 0 -1.998 1.62 -3.618 3.618 -3.618 h 75.918 c 1.998 0 3.618 1.62 3.618 3.618 V 89 z" style="stroke: none; stroke-width: 1; stroke-dasharray: none; stroke-linecap: butt; stroke-linejoin: miter; stroke-miterlimit: 10; fill: rgb(211,178,178); fill-rule: nonzero; opacity: 1;" transform=" matrix(1 0 0 1 0 0) " stroke-linecap="round" />
	<path d="M 82.959 31.485 H 7.041 c -1.998 0 -3.618 -1.62 -3.618 -3.618 V 23.05 h 83.153 v 4.817 C 86.577 29.865 84.957 31.485 82.959 31.485 z" style="stroke: none; stroke-width: 1; stroke-dasharray: none; stroke-linecap: butt; stroke-linejoin: miter; stroke-miterlimit: 10; fill: rgb(211,178,178); fill-rule: nonzero; opacity: 1;" transform=" matrix(1 0 0 1 0 0) " stroke-linecap="round" />
	<rect x="18.89" y="37.46" rx="0" ry="0" width="10.26" height="14.23" style="stroke: none; stroke-width: 1; stroke-dasharray: none; stroke-linecap: butt; stroke-linejoin: miter; stroke-miterlimit: 10; fill: rgb(240,199,100); fill-rule: nonzero; opacity: 1;" transform=" matrix(1 0 0 1 0 0) "/>
	<rect x="60.85" y="37.46" rx="0" ry="0" width="10.26" height="14.23" style="stroke: none; stroke-width: 1; stroke-dasharray: none; stroke-linecap: butt; stroke-linejoin: miter; stroke-miterlimit: 10; fill: rgb(240,199,100); fill-rule: nonzero; opacity: 1;" transform=" matrix(1 0 0 1 0 0) "/>
	<rect x="39.87" y="37.46" rx="0" ry="0" width="10.26" height="14.23" style="stroke: none; stroke-width: 1; stroke-dasharray: none; stroke-linecap: butt; stroke-linejoin: miter; stroke-miterlimit: 10; fill: rgb(240,199,100); fill-rule: nonzero; opacity: 1;" transform=" matrix(1 0 0 1 0 0) "/>
	<rect x="18.89" y="59.94" rx="0" ry="0" width="10.26" height="14.23" style="stroke: none; stroke-width: 1; stroke-dasharray: none; stroke-linecap: butt; stroke-linejoin: miter; stroke-miterlimit: 10; fill: rgb(240,199,100); fill-rule: nonzero; opacity: 1;" transform=" matrix(1 0 0 1 0 0) "/>
	<rect x="60.85" y="59.94" rx="0" ry="0" width="10.26" height="14.23" style="stroke: none; stroke-width: 1; stroke-dasharray: none; stroke-linecap: butt; stroke-linejoin: miter; stroke-miterlimit: 10; fill: rgb(240,199,100); fill-rule: nonzero; opacity: 1;" transform=" matrix(1 0 0 1 0 0) "/>
	<rect x="39.87" y="59.94" rx="0" ry="0" width="10.26" height="20.63" style="stroke: none; stroke-width: 1; stroke-dasharray: none; stroke-linecap: butt; stroke-linejoin: miter; stroke-miterlimit: 10; fill: rgb(211,178,178); fill-rule: nonzero; opacity: 1;" transform=" matrix(1 0 0 1 0 0) "/>
	<path d="M 23.251 18.178 c -0.552 0 -1 -0.448 -1 -1 V 7.636 c 0 -0.552 0.448 -1 1 -1 s 1 0.448 1 1 v 9.542 C 24.251 17.73 23.803 18.178 23.251 18.178 z" style="stroke: none; stroke-width: 1; stroke-dasharray: none; stroke-linecap: butt; stroke-linejoin: miter; stroke-miterlimit: 10; fill: rgb(0,0,0); fill-rule: nonzero; opacity: 1;" transform=" matrix(1 0 0 1 0 0) " stroke-linecap="round" />
	<path d="M 28.522 18.178 c -0.552 0 -1 -0.448 -1 -1 V 7.636 c 0 -0.552 0.448 -1 1 -1 s 1 0.448 1 1 v 9.542 C 29.522 17.73 29.075 18.178 28.522 18.178 z" style="stroke: none; stroke-width: 1; stroke-dasharray: none; stroke-linecap: butt; stroke-linejoin: miter; stroke-miterlimit: 10; fill: rgb(0,0,0); fill-rule: nonzero; opacity: 1;" transform=" matrix(1 0 0 1 0 0) " stroke-linecap="round" />
	<path d="M 28.522 13.407 h -5.271 c -0.552 0 -1 -0.448 -1 -1 s 0.448 -1 1 -1 h 5.271 c 0.552 0 1 0.448 1 1 S 29.075 13.407 28.522 13.407 z" style="stroke: none; stroke-width: 1; stroke-dasharray: none; stroke-linecap: butt; stroke-linejoin: miter; stroke-miterlimit: 10; fill: rgb(0,0,0); fill-rule: nonzero; opacity: 1;" transform=" matrix(1 0 0 1 0 0) " stroke-linecap="round" />
	<path d="M 35.849 18.178 h -0.507 c -1.865 0 -3.382 -1.517 -3.382 -3.382 v -4.777 c 0 -1.865 1.517 -3.382 3.382 -3.382 h 0.507 c 1.865 0 3.382 1.517 3.382 3.382 v 4.777 C 39.231 16.661 37.714 18.178 35.849 18.178 z M 35.341 8.636 c -0.762 0 -1.382 0.62 -1.382 1.382 v 4.777 c 0 0.762 0.62 1.382 1.382 1.382 h 0.507 c 0.762 0 1.382 -0.62 1.382 -1.382 v -4.777 c 0 -0.762 -0.62 -1.382 -1.382 -1.382 H 35.341 z" style="stroke: none; stroke-width: 1; stroke-dasharray: none; stroke-linecap: butt; stroke-linejoin: miter; stroke-miterlimit: 10; fill: rgb(0,0,0); fill-rule: nonzero; opacity: 1;" transform=" matrix(1 0 0 1 0 0) " stroke-linecap="round" />
	<path d="M 46.926 8.636 h -5.272 c -0.552 0 -1 -0.448 -1 -1 s 0.448 -1 1 -1 h 5.272 c 0.553 0 1 0.448 1 1 S 47.479 8.636 46.926 8.636 z" style="stroke: none; stroke-width: 1; stroke-dasharray: none; stroke-linecap: butt; stroke-linejoin: miter; stroke-miterlimit: 10; fill: rgb(0,0,0); fill-rule: nonzero; opacity: 1;" transform=" matrix(1 0 0 1 0 0) " stroke-linecap="round" />
	<path d="M 44.29 18.178 c -0.552 0 -1 -0.448 -1 -1 V 7.636 c 0 -0.552 0.448 -1 1 -1 s 1 0.448 1 1 v 9.542 C 45.29 17.73 44.842 18.178 44.29 18.178 z" style="stroke: none; stroke-width: 1; stroke-dasharray: none; stroke-linecap: butt; stroke-linejoin: miter; stroke-miterlimit: 10; fill: rgb(0,0,0); fill-rule: nonzero; opacity: 1;" transform=" matrix(1 0 0 1 0 0) " stroke-linecap="round" />
	<path d="M 56.311 8.636 h -5.272 c -0.553 0 -1 -0.448 -1 -1 s 0.447 -1 1 -1 h 5.272 c 0.553 0 1 0.448 1 1 S 56.863 8.636 56.311 8.636 z" style="stroke: none; stroke-width: 1; stroke-dasharray: none; stroke-linecap: butt; stroke-linejoin: miter; stroke-miterlimit: 10; fill: rgb(0,0,0); fill-rule: nonzero; opacity: 1;" transform=" matrix(1 0 0 1 0 0) " stroke-linecap="round" />
	<path d="M 51.038 18.178 c -0.553 0 -1 -0.448 -1 -1 V 7.636 c 0 -0.552 0.447 -1 1 -1 s 1 0.448 1 1 v 9.542 C 52.038 17.73 51.591 18.178 51.038 18.178 z" style="stroke: none; stroke-width: 1; stroke-dasharray: none; stroke-linecap: butt; stroke-linejoin: miter; stroke-miterlimit: 10; fill: rgb(0,0,0); fill-rule: nonzero; opacity: 1;" transform=" matrix(1 0 0 1 0 0) " stroke-linecap="round" />
	<path d="M 56.311 18.178 h -5.272 c -0.553 0 -1 -0.448 -1 -1 s 0.447 -1 1 -1 h 5.272 c 0.553 0 1 0.448 1 1 S 56.863 18.178 56.311 18.178 z" style="stroke: none; stroke-width: 1; stroke-dasharray: none; stroke-linecap: butt; stroke-linejoin: miter; stroke-miterlimit: 10; fill: rgb(0,0,0); fill-rule: nonzero; opacity: 1;" transform=" matrix(1 0 0 1 0 0) " stroke-linecap="round" />
	<path d="M 56.311 13.407 h -5.272 c -0.553 0 -1 -0.448 -1 -1 s 0.447 -1 1 -1 h 5.272 c 0.553 0 1 0.448 1 1 S 56.863 13.407 56.311 13.407 z" style="stroke: none; stroke-width: 1; stroke-dasharray: none; stroke-linecap: butt; stroke-linejoin: miter; stroke-miterlimit: 10; fill: rgb(0,0,0); fill-rule: nonzero; opacity: 1;" transform=" matrix(1 0 0 1 0 0) " stroke-linecap="round" />
	<path d="M 61.478 18.178 c -0.553 0 -1 -0.448 -1 -1 V 7.636 c 0 -0.552 0.447 -1 1 -1 s 1 0.448 1 1 v 9.542 C 62.478 17.73 62.03 18.178 61.478 18.178 z" style="stroke: none; stroke-width: 1; stroke-dasharray: none; stroke-linecap: butt; stroke-linejoin: miter; stroke-miterlimit: 10; fill: rgb(0,0,0); fill-rule: nonzero; opacity: 1;" transform=" matrix(1 0 0 1 0 0) " stroke-linecap="round" />
	<path d="M 66.749 18.178 h -5.271 c -0.553 0 -1 -0.448 -1 -1 s 0.447 -1 1 -1 h 5.271 c 0.553 0 1 0.448 1 1 S 67.302 18.178 66.749 18.178 z" style="stroke: none; stroke-width: 1; stroke-dasharray: none; stroke-linecap: butt; stroke-linejoin: miter; stroke-miterlimit: 10; fill: rgb(0,0,0); fill-rule: nonzero; opacity: 1;" transform=" matrix(1 0 0 1 0 0) " stroke-linecap="round" />
	<path d="M 78.041 24.05 H 11.959 c -0.552 0 -1 -0.448 -1 -1 V 5.961 C 10.959 2.674 13.633 0 16.92 0 h 56.16 c 3.287 0 5.961 2.674 5.961 5.961 V 23.05 C 79.041 23.602 78.594 24.05 78.041 24.05 z M 12.959 22.05 h 64.082 V 5.961 C 77.041 3.777 75.264 2 73.08 2 H 16.92 c -2.185 0 -3.961 1.777 -3.961 3.961 V 22.05 z" style="stroke: none; stroke-width: 1; stroke-dasharray: none; stroke-linecap: butt; stroke-linejoin: miter; stroke-miterlimit: 10; fill: rgb(0,0,0); fill-rule: nonzero; opacity: 1;" transform=" matrix(1 0 0 1 0 0) " stroke-linecap="round" />
	<path d="M 82.14 81.565 H 7.86 c -0.552 0 -1 -0.447 -1 -1 V 31.485 c 0 -0.552 0.448 -1 1 -1 H 82.14 c 0.553 0 1 0.448 1 1 v 49.081 C 83.14 81.118 82.692 81.565 82.14 81.565 z M 8.86 79.565 H 81.14 V 32.485 H 8.86 V 79.565 z" style="stroke: none; stroke-width: 1; stroke-dasharray: none; stroke-linecap: butt; stroke-linejoin: miter; stroke-miterlimit: 10; fill: rgb(0,0,0); fill-rule: nonzero; opacity: 1;" transform=" matrix(1 0 0 1 0 0) " stroke-linecap="round" />
	<path d="M 86.576 90 H 3.423 c -0.552 0 -1 -0.447 -1 -1 v -4.817 c 0 -2.546 2.071 -4.617 4.618 -4.617 h 75.918 c 2.546 0 4.617 2.071 4.617 4.617 V 89 C 87.576 89.553 87.129 90 86.576 90 z M 4.423 88 h 81.153 v -3.817 c 0 -1.443 -1.174 -2.617 -2.617 -2.617 H 7.041 c -1.443 0 -2.618 1.174 -2.618 2.617 V 88 z" style="stroke: none; stroke-width: 1; stroke-dasharray: none; stroke-linecap: butt; stroke-linejoin: miter; stroke-miterlimit: 10; fill: rgb(0,0,0); fill-rule: nonzero; opacity: 1;" transform=" matrix(1 0 0 1 0 0) " stroke-linecap="round" />
	<path d="M 82.959 32.485 H 7.041 c -2.546 0 -4.618 -2.071 -4.618 -4.618 V 23.05 c 0 -0.552 0.448 -1 1 -1 h 83.153 c 0.553 0 1 0.448 1 1 v 4.817 C 87.576 30.414 85.505 32.485 82.959 32.485 z M 4.423 24.05 v 3.817 c 0 1.443 1.174 2.618 2.618 2.618 h 75.918 c 1.443 0 2.617 -1.174 2.617 -2.618 V 24.05 H 4.423 z" style="stroke: none; stroke-width: 1; stroke-dasharray: none; stroke-linecap: butt; stroke-linejoin: miter; stroke-miterlimit: 10; fill: rgb(0,0,0); fill-rule: nonzero; opacity: 1;" transform=" matrix(1 0 0 1 0 0) " stroke-linecap="round" />
	<path d="M 29.148 52.699 h -10.26 c -0.552 0 -1 -0.447 -1 -1 V 37.463 c 0 -0.552 0.448 -1 1 -1 h 10.26 c 0.552 0 1 0.448 1 1 v 14.236 C 30.148 52.252 29.7 52.699 29.148 52.699 z M 19.888 50.699 h 8.26 V 38.463 h -8.26 V 50.699 z" style="stroke: none; stroke-width: 1; stroke-dasharray: none; stroke-linecap: butt; stroke-linejoin: miter; stroke-miterlimit: 10; fill: rgb(0,0,0); fill-rule: nonzero; opacity: 1;" transform=" matrix(1 0 0 1 0 0) " stroke-linecap="round" />
	<path d="M 71.112 52.699 h -10.26 c -0.553 0 -1 -0.447 -1 -1 V 37.463 c 0 -0.552 0.447 -1 1 -1 h 10.26 c 0.553 0 1 0.448 1 1 v 14.236 C 72.112 52.252 71.665 52.699 71.112 52.699 z M 61.853 50.699 h 8.26 V 38.463 h -8.26 V 50.699 z" style="stroke: none; stroke-width: 1; stroke-dasharray: none; stroke-linecap: butt; stroke-linejoin: miter; stroke-miterlimit: 10; fill: rgb(0,0,0); fill-rule: nonzero; opacity: 1;" transform=" matrix(1 0 0 1 0 0) " stroke-linecap="round" />
	<path d="M 50.13 52.699 H 39.87 c -0.552 0 -1 -0.447 -1 -1 V 37.463 c 0 -0.552 0.448 -1 1 -1 h 10.26 c 0.553 0 1 0.448 1 1 v 14.236 C 51.13 52.252 50.683 52.699 50.13 52.699 z M 40.87 50.699 h 8.26 V 38.463 h -8.26 V 50.699 z" style="stroke: none; stroke-width: 1; stroke-dasharray: none; stroke-linecap: butt; stroke-linejoin: miter; stroke-miterlimit: 10; fill: rgb(0,0,0); fill-rule: nonzero; opacity: 1;" transform=" matrix(1 0 0 1 0 0) " stroke-linecap="round" />
	<path d="M 29.148 75.172 h -10.26 c -0.552 0 -1 -0.447 -1 -1 V 59.937 c 0 -0.553 0.448 -1 1 -1 h 10.26 c 0.552 0 1 0.447 1 1 v 14.235 C 30.148 74.725 29.7 75.172 29.148 75.172 z M 19.888 73.172 h 8.26 V 60.937 h -8.26 V 73.172 z" style="stroke: none; stroke-width: 1; stroke-dasharray: none; stroke-linecap: butt; stroke-linejoin: miter; stroke-miterlimit: 10; fill: rgb(0,0,0); fill-rule: nonzero; opacity: 1;" transform=" matrix(1 0 0 1 0 0) " stroke-linecap="round" />
	<path d="M 71.112 75.172 h -10.26 c -0.553 0 -1 -0.447 -1 -1 V 59.937 c 0 -0.553 0.447 -1 1 -1 h 10.26 c 0.553 0 1 0.447 1 1 v 14.235 C 72.112 74.725 71.665 75.172 71.112 75.172 z M 61.853 73.172 h 8.26 V 60.937 h -8.26 V 73.172 z" style="stroke: none; stroke-width: 1; stroke-dasharray: none; stroke-linecap: butt; stroke-linejoin: miter; stroke-miterlimit: 10; fill: rgb(0,0,0); fill-rule: nonzero; opacity: 1;" transform=" matrix(1 0 0 1 0 0) " stroke-linecap="round" />
	<path d="M 50.13 81.565 H 39.87 c -0.552 0 -1 -0.447 -1 -1 V 59.937 c 0 -0.553 0.448 -1 1 -1 h 10.26 c 0.553 0 1 0.447 1 1 v 20.629 C 51.13 81.118 50.683 81.565 50.13 81.565 z M 40.87 79.565 h 8.26 V 60.937 h -8.26 V 79.565 z" style="stroke: none; stroke-width: 1; stroke-dasharray: none; stroke-linecap: butt; stroke-linejoin: miter; stroke-miterlimit: 10; fill: rgb(0,0,0); fill-rule: nonzero; opacity: 1;" transform=" matrix(1 0 0 1 0 0) " stroke-linecap="round" />
</g>
</svg>