<svg width="25" height="25" viewBox="0 0 25 25" fill="none" xmlns="http://www.w3.org/2000/svg">
<path fill-rule="evenodd" clip-rule="evenodd" d="M12.5 25C19.4036 25 25 19.4036 25 12.5C25 5.59644 19.4036 0 12.5 0C5.59644 0 0 5.59644 0 12.5C0 19.4036 5.59644 25 12.5 25ZM15.5306 6.39508C14.7398 6.359 14.5026 6.35138 12.5 6.35138C10.4974 6.35138 10.2602 6.359 9.46933 6.39508C8.73811 6.42846 8.34099 6.55064 8.07671 6.65332C7.72663 6.78937 7.47676 6.95193 7.21433 7.21436C6.9519 7.47679 6.78934 7.72666 6.65332 8.07671C6.55061 8.34102 6.42843 8.73814 6.39505 9.46939C6.35897 10.2602 6.35135 10.4974 6.35135 12.5C6.35135 14.5026 6.35897 14.7398 6.39505 15.5307C6.42843 16.2619 6.55061 16.659 6.65332 16.9233C6.78934 17.2734 6.9519 17.5232 7.21433 17.7857C7.47676 18.0481 7.72663 18.2107 8.07671 18.3467C8.34099 18.4494 8.73811 18.5716 9.46936 18.6049C10.2601 18.641 10.4973 18.6487 12.5 18.6487C14.5027 18.6487 14.7399 18.641 15.5306 18.6049C16.2619 18.5716 16.659 18.4494 16.9233 18.3467C17.2733 18.2107 17.5232 18.0481 17.7856 17.7857C18.0481 17.5232 18.2106 17.2734 18.3467 16.9233C18.4494 16.659 18.5715 16.2619 18.6049 15.5306C18.641 14.7398 18.6486 14.5026 18.6486 12.5C18.6486 10.4974 18.641 10.2602 18.6049 9.46936C18.5715 8.73814 18.4494 8.34102 18.3467 8.07671C18.2106 7.72666 18.0481 7.47679 17.7856 7.21436C17.5232 6.95193 17.2733 6.78937 16.9233 6.65332C16.659 6.55064 16.2619 6.42846 15.5306 6.39508ZM9.40776 5.04513C10.2077 5.00863 10.4631 5 12.5 5C14.5369 5 14.7923 5.00863 15.5922 5.04513C16.3905 5.08157 16.9357 5.20834 17.4128 5.39375C17.906 5.58542 18.3242 5.84187 18.7412 6.25882C19.1581 6.67577 19.4146 7.09402 19.6062 7.58721C19.7917 8.0643 19.9184 8.60947 19.9549 9.40779C19.9914 10.2077 20 10.4631 20 12.5C20 14.5369 19.9914 14.7923 19.9549 15.5922C19.9184 16.3906 19.7917 16.9357 19.6062 17.4128C19.4146 17.906 19.1581 18.3243 18.7412 18.7412C18.3242 19.1582 17.906 19.4146 17.4128 19.6063C16.9357 19.7917 16.3905 19.9185 15.5922 19.9549C14.7923 19.9914 14.5369 20 12.5 20C10.4631 20 10.2077 19.9914 9.40776 19.9549C8.60944 19.9185 8.06427 19.7917 7.58719 19.6063C7.09399 19.4146 6.67574 19.1582 6.25879 18.7412C5.84184 18.3243 5.58539 17.906 5.39373 17.4128C5.20831 16.9357 5.08154 16.3906 5.0451 15.5922C5.0086 14.7923 5 14.5369 5 12.5C5 10.4631 5.0086 10.2077 5.0451 9.40779C5.08154 8.60947 5.20831 8.0643 5.39373 7.58721C5.58539 7.09402 5.84184 6.67577 6.25879 6.25882C6.67574 5.84187 7.09399 5.58542 7.58719 5.39375C8.06427 5.20834 8.60944 5.08157 9.40776 5.04513ZM8.64862 12.5C8.64862 10.373 10.3729 8.64865 12.5 8.64865C14.627 8.64865 16.3513 10.373 16.3513 12.5C16.3513 14.6271 14.627 16.3514 12.5 16.3514C10.3729 16.3514 8.64862 14.6271 8.64862 12.5ZM9.99997 12.5C9.99997 13.8807 11.1193 15 12.5 15C13.8807 15 15 13.8807 15 12.5C15 11.1193 13.8807 10 12.5 10C11.1193 10 9.99997 11.1193 9.99997 12.5ZM16.5035 9.39651C17.0006 9.39651 17.4035 8.99355 17.4035 8.49649C17.4035 7.99943 17.0006 7.5965 16.5035 7.5965C16.0064 7.5965 15.6035 7.99943 15.6035 8.49649C15.6035 8.99355 16.0064 9.39651 16.5035 9.39651Z" fill="#666666"/>
</svg>
