<svg width="25" height="25" viewBox="0 0 25 25" fill="none" xmlns="http://www.w3.org/2000/svg">
<path fill-rule="evenodd" clip-rule="evenodd" d="M12.5 25C19.4036 25 25 19.4036 25 12.5C25 5.59644 19.4036 0 12.5 0C5.59644 0 0 5.59644 0 12.5C0 19.4036 5.59644 25 12.5 25ZM13.7644 11.7356L13.7644 11.7356C13.7529 11.7475 13.7385 11.7624 13.7196 11.7826C13.7196 11.683 13.719 11.588 13.7185 11.4962V11.4962V11.4961C13.7172 11.2835 13.716 11.0881 13.7224 10.893C13.7266 10.7631 13.6894 10.7229 13.5559 10.7241C12.8146 10.7304 12.0732 10.7316 11.3318 10.7233C11.1784 10.7216 11.1473 10.7655 11.1483 10.914C11.1578 12.2698 11.1605 13.6257 11.1603 14.9817C11.1598 16.0836 11.1554 17.1858 11.1446 18.2876C11.143 18.4355 11.1913 18.4628 11.3259 18.4618C12.0672 18.456 12.8085 18.4565 13.55 18.4615C13.6755 18.4624 13.7321 18.4356 13.7219 18.2971C13.7138 18.1859 13.7157 18.0741 13.7176 17.9622C13.7184 17.9136 13.7192 17.865 13.7192 17.8165C13.7192 17.4589 13.7196 17.1014 13.72 16.7438C13.7209 15.879 13.7219 15.0143 13.7173 14.1495C13.7143 13.6382 13.8708 13.2037 14.2712 12.8753C15.0123 12.267 16.053 12.5881 16.3183 13.5029C16.4011 13.788 16.4213 14.0807 16.4218 14.3752L16.4221 14.7053V14.7063C16.4234 15.8916 16.4247 17.077 16.4192 18.2625C16.4184 18.4192 16.4592 18.4646 16.6185 18.4628C17.3465 18.4542 18.0747 18.4541 18.8025 18.4628C18.9629 18.4648 19.0014 18.4189 19.0005 18.2624C18.9955 17.0828 18.9963 15.9033 18.9971 14.7237V14.7237V14.7236L18.9975 14.0943C18.9978 13.7598 18.9727 13.4275 18.9222 13.0966C18.7093 11.7011 17.8756 10.7891 16.5727 10.5886C15.4453 10.4153 14.479 10.7056 13.8025 11.6927C13.7939 11.7052 13.7831 11.7163 13.7644 11.7356ZM9.996 15.3784V15.3784C9.99545 16.2206 9.9949 17.0629 9.99999 17.9052C10.0007 18.0424 9.96518 18.0913 9.77294 18.0893C8.91957 18.0804 8.06595 18.0825 7.21252 18.088C7.05404 18.0891 7.00062 18.0583 7.0008 17.9287C7.00495 15.7003 7.00421 13.472 7 11.2436C6.99981 11.1275 7.03617 11.0888 7.19267 11.0899C8.06181 11.0956 8.93095 11.0964 9.79983 11.0894C9.97328 11.0879 10.0002 11.1372 9.99962 11.2564C9.99563 12.0898 9.99592 12.9231 9.99621 13.7564C9.99631 14.0342 9.9964 14.312 9.99634 14.5899C9.99634 14.8527 9.99617 15.1155 9.996 15.3784ZM9.85816 8.69666C10.0917 7.78138 9.4516 7.00097 8.46634 6.99991C7.81736 6.99911 7.30156 7.3116 7.10001 7.82778C6.77709 8.65426 7.2656 9.50947 8.14188 9.6517C8.96693 9.78562 9.68172 9.38778 9.85816 8.69666Z" fill="#666666"/>
</svg>
