<svg width="103" height="24" viewBox="0 0 103 24" fill="none" xmlns="http://www.w3.org/2000/svg">
<path d="M11.5569 7.61595V3.91538H11.3751C11.3089 4.0145 11.2373 4.11362 11.1601 4.21275C11.083 4.30086 11.0058 4.38346 10.9287 4.46055C10.8625 4.52664 10.7964 4.58721 10.7303 4.64228C10.6752 4.68633 10.6366 4.70836 10.6145 4.70836C10.5925 4.70836 10.4933 4.64779 10.3169 4.52664C10.1406 4.40549 9.88706 4.27332 9.55639 4.13015C9.22572 3.98697 8.81238 3.8548 8.31637 3.73365C7.82036 3.61251 7.24169 3.55193 6.58035 3.55193C5.85287 3.55193 5.19704 3.62903 4.61286 3.78322C4.02867 3.93741 3.50511 4.14667 3.04217 4.41099C2.57923 4.66431 2.17692 4.96167 1.83522 5.3031C1.49353 5.64452 1.20695 6.00246 0.975479 6.37692C0.777076 6.69632 0.611741 7.01571 0.479473 7.33511C0.358227 7.64349 0.259025 7.94086 0.181869 8.22721C0.115735 8.51356 0.0661341 8.7834 0.0330671 9.03671C0.0110224 9.29002 0 9.5158 0 9.71405C0 10.6062 0.154313 11.4267 0.462939 12.1756C0.771565 12.9135 1.21246 13.5523 1.78562 14.092C2.36981 14.6206 3.07524 15.0336 3.90192 15.331C4.72859 15.6173 5.65447 15.7605 6.67955 15.7605C7.2968 15.7605 7.84241 15.711 8.31637 15.6118C8.79033 15.5017 9.19265 15.3806 9.52332 15.2484C9.85399 15.1052 10.1075 14.9786 10.2839 14.8684C10.4602 14.7473 10.5594 14.6867 10.5815 14.6867C10.6366 14.6867 10.7358 14.7638 10.8791 14.918C11.0224 15.0722 11.1601 15.2429 11.2924 15.4301H11.4908L11.5404 11.7956H11.342C11.2428 12.2692 11.0554 12.7318 10.7799 13.1833C10.5153 13.6239 10.1847 14.0149 9.78786 14.3563C9.40207 14.6977 8.95567 14.973 8.44864 15.1823C7.95263 15.3916 7.41805 15.4962 6.84489 15.4962C6.11741 15.4962 5.45607 15.3475 4.86086 15.0501C4.26565 14.7528 3.75862 14.3508 3.33977 13.8442C2.92093 13.3265 2.59577 12.7208 2.3643 12.0269C2.14385 11.333 2.03363 10.5896 2.03363 9.79665C2.03363 9.04772 2.13834 8.32083 2.34776 7.61595C2.56821 6.90007 2.87684 6.26128 3.27364 5.69959C3.68147 5.13789 4.18299 4.68633 4.77819 4.34491C5.3734 4.00349 6.05128 3.83278 6.81182 3.83278C7.36294 3.83278 7.88099 3.9319 8.36597 4.13015C8.86198 4.32839 9.30287 4.59822 9.68865 4.93965C10.0855 5.28107 10.4272 5.68307 10.7137 6.14564C11.0003 6.60821 11.2153 7.10382 11.3585 7.63247L11.5569 7.61595Z" fill="#29315E"/>
<path d="M20.0613 14.0754H19.9621C19.918 14.2406 19.8353 14.3783 19.7141 14.4884C19.5928 14.5876 19.4054 14.6371 19.1519 14.6371C18.9315 14.6371 18.7331 14.56 18.5567 14.4058C18.3914 14.2406 18.3087 13.9102 18.3087 13.4146C18.3087 13.0402 18.3087 12.6987 18.3087 12.3904C18.3197 12.071 18.3252 11.7626 18.3252 11.4652C18.3252 11.1678 18.3252 10.8595 18.3252 10.5401C18.3363 10.2207 18.3418 9.86273 18.3418 9.46624C18.3418 9.27901 18.3363 9.09178 18.3252 8.90455C18.3142 8.7063 18.2867 8.56863 18.2426 8.49154C18.1323 8.27126 17.9505 8.08954 17.697 7.94636C17.4434 7.79217 17.1734 7.71508 16.8868 7.71508C16.7435 7.71508 16.5561 7.74812 16.3247 7.8142C16.1042 7.88028 15.8562 7.96839 15.5807 8.07853C15.3161 8.18866 15.0351 8.32082 14.7375 8.47502C14.4398 8.62921 14.1478 8.7889 13.8612 8.95411C13.773 9.00918 13.6683 9.06975 13.547 9.13583C13.4368 9.20191 13.3321 9.27901 13.2329 9.36712C13.1337 9.45523 13.051 9.55435 12.9849 9.66449C12.9188 9.77462 12.8857 9.89577 12.8857 10.0279C12.8857 10.1931 12.9463 10.3418 13.0676 10.474C13.1998 10.5951 13.3541 10.6557 13.5305 10.6557C13.7179 10.6557 13.8887 10.5951 14.043 10.474C14.2084 10.3528 14.291 10.2152 14.291 10.061V9.31756C14.291 9.25148 14.3296 9.17438 14.4068 9.08627C14.4839 8.98715 14.5887 8.89353 14.7209 8.80542C14.8532 8.7063 15.002 8.62921 15.1673 8.57414C15.3437 8.50806 15.52 8.47502 15.6964 8.47502C15.9609 8.47502 16.1759 8.51356 16.3412 8.59066C16.5065 8.65674 16.6333 8.73384 16.7215 8.82195C16.8207 8.91005 16.8868 8.99816 16.9199 9.08627C16.964 9.16337 16.986 9.21293 16.986 9.23495V10.9366C16.8758 11.0026 16.738 11.0797 16.5727 11.1678C16.4184 11.2449 16.2365 11.3441 16.0271 11.4652C15.8176 11.5753 15.5696 11.713 15.2831 11.8782C15.0075 12.0434 14.6879 12.2417 14.3241 12.473C13.9604 12.7042 13.6518 12.9631 13.3982 13.2494C13.1557 13.5358 13.0345 13.8331 13.0345 14.1415C13.0345 14.4279 13.0786 14.6702 13.1668 14.8684C13.266 15.0667 13.3872 15.2319 13.5305 15.364C13.6848 15.4852 13.8502 15.5733 14.0265 15.6284C14.2139 15.6724 14.3958 15.6944 14.5721 15.6944C14.8697 15.6944 15.1398 15.6504 15.3823 15.5623C15.6358 15.4632 15.8617 15.3365 16.0601 15.1823C16.2696 15.0281 16.4459 14.8629 16.5892 14.6867C16.7435 14.5105 16.8648 14.3508 16.9529 14.2076L16.986 14.2241C16.986 14.7748 17.1293 15.1603 17.4159 15.3806C17.7135 15.6008 18.0497 15.711 18.4244 15.711C18.6559 15.711 18.8653 15.6724 19.0527 15.5953C19.2511 15.5072 19.422 15.3861 19.5652 15.2319C19.7085 15.0667 19.8243 14.8849 19.9125 14.6867C20.0006 14.4884 20.0502 14.2847 20.0613 14.0754ZM16.986 13.745C16.986 13.9323 16.9199 14.0865 16.7876 14.2076C16.6002 14.3948 16.3963 14.5215 16.1759 14.5876C15.9554 14.6537 15.7019 14.6867 15.4153 14.6867C15.0957 14.6867 14.8367 14.5711 14.6383 14.3398C14.4399 14.1085 14.3406 13.8497 14.3406 13.5633C14.3406 13.277 14.4399 13.0236 14.6383 12.8034C14.8477 12.5721 15.0902 12.3628 15.3657 12.1756C15.6523 11.9884 15.9444 11.8176 16.242 11.6635C16.5396 11.4983 16.7876 11.3441 16.986 11.2009V13.745Z" fill="#29315E"/>
<path d="M25.8851 13.2825C25.8851 12.7208 25.7087 12.2472 25.356 11.8617C25.0143 11.4762 24.5954 11.2229 24.0994 11.1018C23.89 11.0467 23.642 10.9916 23.3554 10.9366C23.0689 10.8705 22.8043 10.8099 22.5618 10.7548C22.2091 10.6667 21.917 10.5346 21.6855 10.3583C21.4541 10.1821 21.3383 9.89027 21.3383 9.48276C21.3383 9.22945 21.3824 9.00918 21.4706 8.82195C21.5588 8.6237 21.669 8.464 21.8013 8.34285C21.9446 8.21069 22.1044 8.11157 22.2808 8.04548C22.4681 7.9794 22.6555 7.94636 22.8429 7.94636C23.1515 7.94636 23.4216 8.00143 23.653 8.11157C23.8955 8.2217 24.1105 8.3814 24.2978 8.59066C24.4852 8.7889 24.6561 9.0312 24.8104 9.31756C24.9647 9.5929 25.119 9.89577 25.2733 10.2262L25.4056 10.1931L25.2072 8.14461C24.8875 8.02346 24.5514 7.92434 24.1986 7.84724C23.8459 7.75913 23.4381 7.71508 22.9752 7.71508C22.6114 7.71508 22.2697 7.77014 21.9501 7.88028C21.6304 7.9794 21.3494 8.12809 21.1069 8.32633C20.8644 8.52458 20.6715 8.76137 20.5282 9.03671C20.3849 9.31205 20.3133 9.62043 20.3133 9.96185C20.3133 10.4575 20.44 10.8815 20.6935 11.2339C20.9581 11.5864 21.2998 11.8342 21.7186 11.9773C21.9391 12.0544 22.1871 12.126 22.4626 12.1921C22.7382 12.2582 23.0248 12.3188 23.3224 12.3738C23.6971 12.4509 23.9892 12.6051 24.1986 12.8364C24.4191 13.0567 24.5293 13.3375 24.5293 13.6789C24.5293 14.3067 24.3695 14.7748 24.0498 15.0832C23.7412 15.3806 23.3224 15.5292 22.7933 15.5292C22.4296 15.5292 22.1154 15.4521 21.8509 15.298C21.5863 15.1327 21.3604 14.929 21.173 14.6867C20.9856 14.4334 20.8258 14.1635 20.6935 13.8772C20.5613 13.5798 20.451 13.299 20.3629 13.0347H20.2306V15.2153C20.5943 15.3806 20.9911 15.5072 21.421 15.5953C21.8509 15.6834 22.3083 15.7275 22.7933 15.7275C23.2011 15.7275 23.5869 15.6834 23.9506 15.5953C24.3254 15.5072 24.6561 15.364 24.9427 15.1658C25.2292 14.9675 25.4552 14.7142 25.6205 14.4058C25.7969 14.0865 25.8851 13.712 25.8851 13.2825Z" fill="#29315E"/>
<path d="M33.7854 14.0754H33.6862C33.6421 14.2406 33.5594 14.3783 33.4382 14.4884C33.3169 14.5876 33.1296 14.6371 32.876 14.6371C32.6556 14.6371 32.4572 14.56 32.2808 14.4058C32.1155 14.2406 32.0328 13.9102 32.0328 13.4146C32.0328 13.0402 32.0328 12.6987 32.0328 12.3904C32.0438 12.071 32.0494 11.7626 32.0494 11.4652C32.0494 11.1678 32.0494 10.8595 32.0494 10.5401C32.0604 10.2207 32.0659 9.86273 32.0659 9.46624C32.0659 9.27901 32.0604 9.09178 32.0494 8.90455C32.0383 8.7063 32.0108 8.56863 31.9667 8.49154C31.8565 8.27126 31.6746 8.08954 31.4211 7.94636C31.1676 7.79217 30.8975 7.71508 30.6109 7.71508C30.4677 7.71508 30.2803 7.74812 30.0488 7.8142C29.8284 7.88028 29.5804 7.96839 29.3048 8.07853C29.0403 8.18866 28.7592 8.32082 28.4616 8.47502C28.164 8.62921 27.8719 8.7889 27.5853 8.95411C27.4971 9.00918 27.3924 9.06975 27.2712 9.13583C27.1609 9.20191 27.0562 9.27901 26.957 9.36712C26.8578 9.45523 26.7752 9.55435 26.709 9.66449C26.6429 9.77462 26.6098 9.89577 26.6098 10.0279C26.6098 10.1931 26.6705 10.3418 26.7917 10.474C26.924 10.5951 27.0783 10.6557 27.2546 10.6557C27.442 10.6557 27.6129 10.5951 27.7672 10.474C27.9325 10.3528 28.0152 10.2152 28.0152 10.061V9.31756C28.0152 9.25148 28.0538 9.17438 28.1309 9.08627C28.2081 8.98715 28.3128 8.89353 28.445 8.80542C28.5773 8.7063 28.7261 8.62921 28.8915 8.57414C29.0678 8.50806 29.2442 8.47502 29.4205 8.47502C29.6851 8.47502 29.9 8.51356 30.0653 8.59066C30.2307 8.65674 30.3574 8.73384 30.4456 8.82195C30.5448 8.91005 30.6109 8.99816 30.644 9.08627C30.6881 9.16337 30.7101 9.21293 30.7101 9.23495V10.9366C30.5999 11.0026 30.4621 11.0797 30.2968 11.1678C30.1425 11.2449 29.9606 11.3441 29.7512 11.4652C29.5418 11.5753 29.2938 11.713 29.0072 11.8782C28.7316 12.0434 28.412 12.2417 28.0482 12.473C27.6845 12.7042 27.3759 12.9631 27.1224 13.2494C26.8799 13.5358 26.7586 13.8331 26.7586 14.1415C26.7586 14.4279 26.8027 14.6702 26.8909 14.8684C26.9901 15.0667 27.1113 15.2319 27.2546 15.364C27.4089 15.4852 27.5743 15.5733 27.7506 15.6284C27.938 15.6724 28.1199 15.6944 28.2962 15.6944C28.5939 15.6944 28.8639 15.6504 29.1064 15.5623C29.3599 15.4632 29.5859 15.3365 29.7843 15.1823C29.9937 15.0281 30.17 14.8629 30.3133 14.6867C30.4677 14.5105 30.5889 14.3508 30.6771 14.2076L30.7101 14.2241C30.7101 14.7748 30.8534 15.1603 31.14 15.3806C31.4376 15.6008 31.7738 15.711 32.1486 15.711C32.38 15.711 32.5895 15.6724 32.7768 15.5953C32.9752 15.5072 33.1461 15.3861 33.2894 15.2319C33.4327 15.0667 33.5484 14.8849 33.6366 14.6867C33.7248 14.4884 33.7744 14.2847 33.7854 14.0754ZM30.7101 13.745C30.7101 13.9323 30.644 14.0865 30.5117 14.2076C30.3244 14.3948 30.1204 14.5215 29.9 14.5876C29.6796 14.6537 29.426 14.6867 29.1395 14.6867C28.8198 14.6867 28.5608 14.5711 28.3624 14.3398C28.164 14.1085 28.0648 13.8497 28.0648 13.5633C28.0648 13.277 28.164 13.0236 28.3624 12.8034C28.5718 12.5721 28.8143 12.3628 29.0899 12.1756C29.3764 11.9884 29.6685 11.8176 29.9661 11.6635C30.2637 11.4983 30.5117 11.3441 30.7101 11.2009V13.745Z" fill="#29315E"/>
<path d="M48.7681 12.2912L48.6028 12.2417C48.4705 12.5721 48.3327 12.8915 48.1895 13.1999C48.0462 13.4972 47.8698 13.7781 47.6604 14.0424C47.451 14.2957 47.1974 14.5215 46.8998 14.7197C46.6133 14.918 46.2495 15.0777 45.8086 15.1988C45.6212 15.2539 45.4063 15.2979 45.1638 15.331C44.9213 15.364 44.6843 15.3916 44.4529 15.4136C44.2214 15.4246 44.0065 15.4356 43.8081 15.4466C43.6207 15.4466 43.4829 15.4466 43.3947 15.4466C43.1743 15.4466 42.9538 15.4356 42.7334 15.4136C42.5129 15.3806 42.309 15.3475 42.1216 15.3145C41.9343 15.2704 41.7744 15.2209 41.6422 15.1658C41.5099 15.1107 41.4217 15.0557 41.3776 15.0006C41.2784 14.8464 41.2178 14.6096 41.1958 14.2902C41.1847 13.9708 41.1737 13.6349 41.1627 13.2825C41.1627 12.908 41.1572 12.5721 41.1462 12.2747C41.1462 11.9663 41.1462 11.669 41.1462 11.3826C41.1462 11.0963 41.1462 10.8044 41.1462 10.507C41.1462 10.1986 41.1462 9.85722 41.1462 9.48276C41.1462 9.07526 41.1462 8.7063 41.1462 8.37589C41.1462 8.04549 41.1462 7.72609 41.1462 7.41771C41.1572 7.10933 41.1627 6.79544 41.1627 6.47605C41.1737 6.15665 41.1847 5.80421 41.1958 5.41874C41.2068 5.12137 41.2729 4.88458 41.3942 4.70836C41.5264 4.52113 41.6808 4.37795 41.8571 4.27883C42.0335 4.17971 42.2208 4.10812 42.4193 4.06406C42.6177 4.02001 42.7885 3.98697 42.9318 3.96494V3.79974H37.6576V3.96494C37.9442 3.99798 38.2142 4.06406 38.4677 4.16319C38.7323 4.26231 38.9417 4.40549 39.096 4.59272C39.1621 4.66981 39.2117 4.77444 39.2448 4.9066C39.2779 5.03877 39.2999 5.19296 39.3109 5.36918C39.333 5.53438 39.344 5.71611 39.344 5.91435C39.344 6.10158 39.344 6.29432 39.344 6.49257V9.69753C39.344 9.99489 39.344 10.3143 39.344 10.6557C39.344 10.9861 39.3385 11.311 39.3275 11.6304C39.3275 11.9388 39.322 12.2252 39.3109 12.4895C39.3109 12.7538 39.3109 12.9631 39.3109 13.1173C39.3109 13.2935 39.2999 13.4752 39.2779 13.6624C39.2669 13.8386 39.2503 14.0094 39.2283 14.1746C39.2062 14.3398 39.1732 14.4885 39.1291 14.6206C39.096 14.7418 39.0519 14.8354 38.9968 14.9015C38.8425 15.0777 38.6276 15.2153 38.352 15.3145C38.0875 15.4136 37.8174 15.4852 37.5419 15.5292V15.6944H48.1564L48.7681 12.2912Z" fill="#29315E"/>
<path d="M56.3737 14.0754H56.2745C56.2304 14.2406 56.1477 14.3783 56.0265 14.4884C55.9052 14.5876 55.7179 14.6371 55.4643 14.6371C55.2439 14.6371 55.0455 14.56 54.8691 14.4058C54.7038 14.2406 54.6211 13.9102 54.6211 13.4146C54.6211 13.0402 54.6211 12.6987 54.6211 12.3904C54.6322 12.071 54.6377 11.7626 54.6377 11.4652C54.6377 11.1678 54.6377 10.8595 54.6377 10.5401C54.6487 10.2207 54.6542 9.86273 54.6542 9.46624C54.6542 9.27901 54.6487 9.09178 54.6377 8.90455C54.6266 8.7063 54.5991 8.56863 54.555 8.49154C54.4448 8.27126 54.2629 8.08954 54.0094 7.94636C53.7559 7.79217 53.4858 7.71508 53.1992 7.71508C53.056 7.71508 52.8686 7.74812 52.6371 7.8142C52.4167 7.88028 52.1687 7.96839 51.8931 8.07853C51.6286 8.18866 51.3475 8.32082 51.0499 8.47502C50.7523 8.62921 50.4602 8.7889 50.1736 8.95411C50.0854 9.00918 49.9807 9.06975 49.8595 9.13583C49.7492 9.20191 49.6445 9.27901 49.5453 9.36712C49.4461 9.45523 49.3635 9.55435 49.2973 9.66449C49.2312 9.77462 49.1981 9.89577 49.1981 10.0279C49.1981 10.1931 49.2588 10.3418 49.38 10.474C49.5123 10.5951 49.6666 10.6557 49.8429 10.6557C50.0303 10.6557 50.2012 10.5951 50.3555 10.474C50.5208 10.3528 50.6035 10.2152 50.6035 10.061V9.31756C50.6035 9.25148 50.6421 9.17438 50.7192 9.08627C50.7964 8.98715 50.9011 8.89353 51.0334 8.80542C51.1656 8.7063 51.3144 8.62921 51.4798 8.57414C51.6561 8.50806 51.8325 8.47502 52.0088 8.47502C52.2734 8.47502 52.4883 8.51356 52.6536 8.59066C52.819 8.65674 52.9457 8.73384 53.0339 8.82195C53.1331 8.91005 53.1992 8.99816 53.2323 9.08627C53.2764 9.16337 53.2984 9.21293 53.2984 9.23495V10.9366C53.1882 11.0026 53.0504 11.0797 52.8851 11.1678C52.7308 11.2449 52.5489 11.3441 52.3395 11.4652C52.1301 11.5753 51.8821 11.713 51.5955 11.8782C51.3199 12.0434 51.0003 12.2417 50.6365 12.473C50.2728 12.7042 49.9642 12.9631 49.7107 13.2494C49.4682 13.5358 49.3469 13.8331 49.3469 14.1415C49.3469 14.4279 49.391 14.6702 49.4792 14.8684C49.5784 15.0667 49.6996 15.2319 49.8429 15.364C49.9972 15.4852 50.1626 15.5733 50.3389 15.6284C50.5263 15.6724 50.7082 15.6944 50.8845 15.6944C51.1822 15.6944 51.4522 15.6504 51.6947 15.5623C51.9482 15.4632 52.1742 15.3365 52.3726 15.1823C52.582 15.0281 52.7584 14.8629 52.9016 14.6867C53.056 14.5105 53.1772 14.3508 53.2654 14.2076L53.2984 14.2241C53.2984 14.7748 53.4417 15.1603 53.7283 15.3806C54.0259 15.6008 54.3621 15.711 54.7369 15.711C54.9683 15.711 55.1778 15.6724 55.3651 15.5953C55.5635 15.5072 55.7344 15.3861 55.8777 15.2319C56.021 15.0667 56.1367 14.8849 56.2249 14.6867C56.3131 14.4884 56.3627 14.2847 56.3737 14.0754ZM53.2984 13.745C53.2984 13.9323 53.2323 14.0865 53.1 14.2076C52.9127 14.3948 52.7088 14.5215 52.4883 14.5876C52.2679 14.6537 52.0143 14.6867 51.7278 14.6867C51.4081 14.6867 51.1491 14.5711 50.9507 14.3398C50.7523 14.1085 50.6531 13.8497 50.6531 13.5633C50.6531 13.277 50.7523 13.0236 50.9507 12.8034C51.1601 12.5721 51.4026 12.3628 51.6782 12.1756C51.9647 11.9884 52.2568 11.8176 52.5544 11.6635C52.852 11.4983 53.1 11.3441 53.2984 11.2009V13.745Z" fill="#29315E"/>
<path d="M71.3564 12.2912L71.1911 12.2417C71.0588 12.5721 70.9211 12.8915 70.7778 13.1999C70.6345 13.4972 70.4581 13.7781 70.2487 14.0424C70.0393 14.2957 69.7857 14.5215 69.4881 14.7197C69.2016 14.918 68.8378 15.0777 68.3969 15.1988C68.2095 15.2539 67.9946 15.2979 67.7521 15.331C67.5096 15.364 67.2727 15.3916 67.0412 15.4136C66.8097 15.4246 66.5948 15.4356 66.3964 15.4466C66.209 15.4466 66.0712 15.4466 65.983 15.4466C65.7626 15.4466 65.5421 15.4356 65.3217 15.4136C65.1012 15.3806 64.8973 15.3475 64.71 15.3145C64.5226 15.2704 64.3627 15.2209 64.2305 15.1658C64.0982 15.1107 64.01 15.0557 63.9659 15.0006C63.8667 14.8464 63.8061 14.6096 63.7841 14.2902C63.773 13.9708 63.762 13.6349 63.751 13.2825C63.751 12.908 63.7455 12.5721 63.7345 12.2747C63.7345 11.9663 63.7345 11.669 63.7345 11.3826C63.7345 11.0963 63.7345 10.8044 63.7345 10.507C63.7345 10.1986 63.7345 9.85722 63.7345 9.48276C63.7345 9.07526 63.7345 8.7063 63.7345 8.37589C63.7345 8.04549 63.7345 7.72609 63.7345 7.41771C63.7455 7.10933 63.751 6.79544 63.751 6.47605C63.762 6.15665 63.773 5.80421 63.7841 5.41874C63.7951 5.12137 63.8612 4.88458 63.9825 4.70836C64.1147 4.52113 64.2691 4.37795 64.4454 4.27883C64.6218 4.17971 64.8092 4.10812 65.0076 4.06406C65.206 4.02001 65.3768 3.98697 65.5201 3.96494V3.79974H60.2459V3.96494C60.5325 3.99798 60.8025 4.06406 61.056 4.16319C61.3206 4.26231 61.53 4.40549 61.6843 4.59272C61.7504 4.66981 61.8 4.77444 61.8331 4.9066C61.8662 5.03877 61.8882 5.19296 61.8992 5.36918C61.9213 5.53438 61.9323 5.71611 61.9323 5.91435C61.9323 6.10158 61.9323 6.29432 61.9323 6.49257V9.69753C61.9323 9.99489 61.9323 10.3143 61.9323 10.6557C61.9323 10.9861 61.9268 11.311 61.9158 11.6304C61.9158 11.9388 61.9103 12.2252 61.8992 12.4895C61.8992 12.7538 61.8992 12.9631 61.8992 13.1173C61.8992 13.2935 61.8882 13.4752 61.8662 13.6624C61.8552 13.8386 61.8386 14.0094 61.8166 14.1746C61.7945 14.3398 61.7615 14.4885 61.7174 14.6206C61.6843 14.7418 61.6402 14.8354 61.5851 14.9015C61.4308 15.0777 61.2159 15.2153 60.9403 15.3145C60.6758 15.4136 60.4057 15.4852 60.1302 15.5292V15.6944H70.7447L71.3564 12.2912Z" fill="#29315E"/>
<path d="M79.6399 15.2814V15.1823C79.5076 15.1272 79.3423 15.0556 79.1439 14.9675C78.9565 14.8794 78.8132 14.8078 78.714 14.7528C78.6368 14.6977 78.5872 14.6481 78.5652 14.6041C78.5542 14.56 78.5486 14.494 78.5486 14.4058V7.88028H75.771V8.06201C76.0135 8.08403 76.245 8.11157 76.4654 8.14461C76.6969 8.17765 76.8788 8.2217 77.011 8.27677C77.0772 8.36488 77.1213 8.49704 77.1433 8.67326C77.1653 8.83846 77.1764 8.97614 77.1764 9.08627V13.7946C77.0772 13.9268 76.9669 14.0534 76.8457 14.1746C76.7355 14.2957 76.6087 14.4058 76.4654 14.505C76.3332 14.5931 76.1788 14.6702 76.0025 14.7363C75.8372 14.7913 75.6387 14.8189 75.4073 14.8189C74.801 14.8189 74.3877 14.6481 74.1673 14.3067C73.9468 13.9543 73.8366 13.4146 73.8366 12.6877V7.88028H71.2739V8.06201C71.3731 8.07302 71.4778 8.08403 71.588 8.09505C71.6982 8.09505 71.803 8.10606 71.9022 8.12809C72.0014 8.15011 72.0895 8.18316 72.1667 8.22721C72.2549 8.27126 72.321 8.34285 72.3651 8.44198C72.3872 8.47502 72.3982 8.53008 72.3982 8.60718C72.4092 8.67326 72.4202 8.75036 72.4312 8.83846C72.4423 8.91556 72.4478 8.99266 72.4478 9.06975C72.4478 9.14685 72.4478 9.20742 72.4478 9.25148V13.2825C72.4478 14.0865 72.6131 14.6977 72.9438 15.1162C73.2855 15.5347 73.809 15.744 74.5145 15.744C74.8231 15.744 75.1097 15.6944 75.3742 15.5953C75.6498 15.4962 75.8978 15.364 76.1182 15.1988C76.3387 15.0226 76.5371 14.8299 76.7134 14.6206C76.8898 14.4114 77.0386 14.2131 77.1598 14.0259L77.1764 14.0424V15.711H77.2921L79.6399 15.2814Z" fill="#29315E"/>
<path d="M88.3933 15.6944V15.5458C88.2941 15.5347 88.1839 15.5237 88.0627 15.5127C87.9524 15.4907 87.8477 15.4687 87.7485 15.4466C87.6493 15.4136 87.5611 15.3695 87.484 15.3145C87.4179 15.2594 87.3848 15.1933 87.3848 15.1162V10.2592C87.3848 9.5103 87.214 8.89904 86.8723 8.42545C86.5306 7.95187 86.0401 7.71508 85.4008 7.71508C85.1032 7.71508 84.8166 7.77565 84.541 7.8968C84.2655 8.00694 84.0119 8.15012 83.7805 8.32633C83.549 8.50255 83.3396 8.7008 83.1522 8.92107C82.9758 9.13033 82.827 9.32857 82.7058 9.5158L82.6727 9.49928V7.71508H82.5735L80.4076 8.49154V8.59066C80.5399 8.64573 80.6722 8.71181 80.8044 8.7889C80.9367 8.85499 81.0524 8.91556 81.1516 8.97063C81.2288 9.0257 81.2729 9.07526 81.2839 9.11931C81.306 9.16337 81.317 9.22945 81.317 9.31756V15.0006C81.317 15.1768 81.2233 15.3035 81.0359 15.3806C80.8596 15.4576 80.6446 15.5072 80.3911 15.5292V15.6944H83.5821V15.5292C83.4719 15.5072 83.3671 15.4962 83.2679 15.4962C83.1687 15.4852 83.0806 15.4687 83.0034 15.4466C82.9263 15.4246 82.8601 15.3916 82.805 15.3475C82.7499 15.2924 82.7113 15.2098 82.6893 15.0997V9.68101C82.9869 9.38364 83.2569 9.15786 83.4994 9.00367C83.7419 8.84948 84.045 8.77238 84.4088 8.77238C84.9819 8.77238 85.3897 8.97063 85.6322 9.36712C85.8747 9.75259 85.996 10.2647 85.996 10.9035V15.0667C85.996 15.2429 85.9078 15.3585 85.7314 15.4136C85.5551 15.4576 85.3181 15.4907 85.0205 15.5127V15.6944H88.3933Z" fill="#29315E"/>
<path d="M96.2382 14.0754H96.139C96.095 14.2406 96.0123 14.3783 95.891 14.4884C95.7698 14.5876 95.5824 14.6371 95.3289 14.6371C95.1085 14.6371 94.91 14.56 94.7337 14.4058C94.5684 14.2406 94.4857 13.9102 94.4857 13.4146C94.4857 13.0402 94.4857 12.6987 94.4857 12.3904C94.4967 12.071 94.5022 11.7626 94.5022 11.4652C94.5022 11.1678 94.5022 10.8595 94.5022 10.5401C94.5132 10.2207 94.5188 9.86273 94.5188 9.46624C94.5188 9.27901 94.5132 9.09178 94.5022 8.90455C94.4912 8.7063 94.4636 8.56863 94.4196 8.49154C94.3093 8.27126 94.1275 8.08954 93.8739 7.94636C93.6204 7.79217 93.3504 7.71508 93.0638 7.71508C92.9205 7.71508 92.7331 7.74812 92.5017 7.8142C92.2812 7.88028 92.0332 7.96839 91.7577 8.07853C91.4931 8.18866 91.2121 8.32082 90.9144 8.47502C90.6168 8.62921 90.3247 8.7889 90.0382 8.95411C89.95 9.00918 89.8453 9.06975 89.724 9.13583C89.6138 9.20191 89.5091 9.27901 89.4099 9.36712C89.3107 9.45523 89.228 9.55435 89.1619 9.66449C89.0958 9.77462 89.0627 9.89577 89.0627 10.0279C89.0627 10.1931 89.1233 10.3418 89.2446 10.474C89.3768 10.5951 89.5311 10.6557 89.7075 10.6557C89.8949 10.6557 90.0657 10.5951 90.22 10.474C90.3854 10.3528 90.468 10.2152 90.468 10.061V9.31756C90.468 9.25148 90.5066 9.17438 90.5838 9.08627C90.6609 8.98715 90.7656 8.89353 90.8979 8.80542C91.0302 8.7063 91.179 8.62921 91.3443 8.57414C91.5207 8.50806 91.697 8.47502 91.8734 8.47502C92.1379 8.47502 92.3529 8.51356 92.5182 8.59066C92.6835 8.65674 92.8103 8.73384 92.8985 8.82195C92.9977 8.91005 93.0638 8.99816 93.0969 9.08627C93.141 9.16337 93.163 9.21293 93.163 9.23495V10.9366C93.0528 11.0026 92.915 11.0797 92.7497 11.1678C92.5954 11.2449 92.4135 11.3441 92.2041 11.4652C91.9946 11.5753 91.7466 11.713 91.4601 11.8782C91.1845 12.0434 90.8648 12.2417 90.5011 12.473C90.1374 12.7042 89.8287 12.9631 89.5752 13.2494C89.3327 13.5358 89.2115 13.8331 89.2115 14.1415C89.2115 14.4279 89.2556 14.6702 89.3438 14.8684C89.443 15.0667 89.5642 15.2319 89.7075 15.364C89.8618 15.4852 90.0271 15.5733 90.2035 15.6284C90.3909 15.6724 90.5728 15.6944 90.7491 15.6944C91.0467 15.6944 91.3168 15.6504 91.5593 15.5623C91.8128 15.4632 92.0387 15.3365 92.2371 15.1823C92.4466 15.0281 92.6229 14.8629 92.7662 14.6867C92.9205 14.5105 93.0418 14.3508 93.1299 14.2076L93.163 14.2241C93.163 14.7748 93.3063 15.1603 93.5929 15.3806C93.8905 15.6008 94.2267 15.711 94.6014 15.711C94.8329 15.711 95.0423 15.6724 95.2297 15.5953C95.4281 15.5072 95.5989 15.3861 95.7422 15.2319C95.8855 15.0667 96.0013 14.8849 96.0894 14.6867C96.1776 14.4884 96.2272 14.2847 96.2382 14.0754ZM93.163 13.745C93.163 13.9323 93.0969 14.0865 92.9646 14.2076C92.7772 14.3948 92.5733 14.5215 92.3529 14.5876C92.1324 14.6537 91.8789 14.6867 91.5923 14.6867C91.2727 14.6867 91.0136 14.5711 90.8152 14.3398C90.6168 14.1085 90.5176 13.8497 90.5176 13.5633C90.5176 13.277 90.6168 13.0236 90.8152 12.8034C91.0247 12.5721 91.2672 12.3628 91.5427 12.1756C91.8293 11.9884 92.1214 11.8176 92.419 11.6635C92.7166 11.4983 92.9646 11.3441 93.163 11.2009V13.745Z" fill="#29315E"/>
<path d="M103 4.22019C102.372 4.77879 101.545 5.1182 100.638 5.1182C98.6757 5.1182 97.0849 3.52869 97.0849 1.56795C97.0849 1.0051 97.216 0.472846 97.4493 0C96.7185 0.650255 96.2583 1.59754 96.2583 2.65224C96.2583 4.61299 97.849 6.20249 99.8113 6.20249C101.21 6.20249 102.421 5.39457 103 4.22019Z" fill="#29315E"/>
<path d="M32.2569 21.0635V23.9546H31.7196V22.7155H30.2233V23.9546H29.686V21.0635H30.2233V22.2571H31.7196V21.0635H32.2569Z" fill="#29315E"/>
<path d="M34.3839 23.9959C34.089 23.9959 33.8231 23.9325 33.5861 23.8059C33.3491 23.6765 33.1631 23.4989 33.0281 23.2731C32.8931 23.0446 32.8256 22.7899 32.8256 22.509C32.8256 22.2282 32.8931 21.9749 33.0281 21.7491C33.1631 21.5206 33.3491 21.343 33.5861 21.2163C33.8231 21.0869 34.089 21.0222 34.3839 21.0222C34.6787 21.0222 34.9446 21.0869 35.1816 21.2163C35.4186 21.343 35.6046 21.5192 35.7396 21.745C35.8746 21.9707 35.9421 22.2254 35.9421 22.509C35.9421 22.7926 35.8746 23.0473 35.7396 23.2731C35.6046 23.4989 35.4186 23.6765 35.1816 23.8059C34.9446 23.9325 34.6787 23.9959 34.3839 23.9959ZM34.3839 23.525C34.5767 23.525 34.7503 23.4824 34.9047 23.397C35.059 23.3089 35.1802 23.1877 35.2684 23.0336C35.3566 22.8766 35.4007 22.7018 35.4007 22.509C35.4007 22.3163 35.3566 22.1428 35.2684 21.9886C35.1802 21.8317 35.059 21.7105 34.9047 21.6252C34.7503 21.5371 34.5767 21.493 34.3839 21.493C34.191 21.493 34.0174 21.5371 33.863 21.6252C33.7087 21.7105 33.5875 21.8317 33.4993 21.9886C33.4111 22.1428 33.367 22.3163 33.367 22.509C33.367 22.7018 33.4111 22.8766 33.4993 23.0336C33.5875 23.1877 33.7087 23.3089 33.863 23.397C34.0174 23.4824 34.191 23.525 34.3839 23.525Z" fill="#29315E"/>
<path d="M37.0583 21.5178H36.0993V21.0635H38.5546V21.5178H37.5956V23.9546H37.0583V21.5178Z" fill="#29315E"/>
<path d="M41.1279 23.5044V23.9546H38.9578V21.0635H41.07V21.5137H39.4952V22.2654H40.8923V22.7073H39.4952V23.5044H41.1279Z" fill="#29315E"/>
<path d="M41.7269 21.0635H42.2642V23.5003H43.777V23.9546H41.7269V21.0635Z" fill="#29315E"/>
<path d="M47.5136 24L47.1499 23.6489C46.8798 23.8802 46.556 23.9959 46.1785 23.9959C45.9774 23.9959 45.7969 23.9628 45.6371 23.8967C45.4772 23.8307 45.3519 23.7398 45.2609 23.6242C45.17 23.5058 45.1245 23.3722 45.1245 23.2235C45.1245 23.0446 45.1769 22.8876 45.2816 22.7527C45.3863 22.615 45.5571 22.4801 45.7941 22.348C45.6784 22.2323 45.5957 22.1249 45.5461 22.0258C45.4965 21.9239 45.4717 21.8193 45.4717 21.7119C45.4717 21.5082 45.5475 21.3443 45.6991 21.2204C45.8534 21.0938 46.0573 21.0305 46.3108 21.0305C46.545 21.0305 46.7324 21.0883 46.8729 21.2039C47.0135 21.3168 47.0837 21.471 47.0837 21.6665C47.0837 21.8152 47.0369 21.9473 46.9432 22.063C46.8523 22.1786 46.7021 22.2956 46.4927 22.414L47.1168 23.0088C47.1857 22.8739 47.2394 22.7114 47.278 22.5214L47.6955 22.6577C47.6404 22.9138 47.5536 23.1341 47.4351 23.3185L47.7988 23.6655L47.5136 24ZM46.3108 21.398C46.1978 21.398 46.1083 21.4269 46.0421 21.4848C45.976 21.5398 45.9429 21.6128 45.9429 21.7037C45.9429 21.7697 45.9608 21.8331 45.9967 21.8936C46.0325 21.9515 46.1014 22.0313 46.2033 22.1332C46.3687 22.0423 46.483 21.9639 46.5464 21.8978C46.6125 21.8289 46.6456 21.7546 46.6456 21.6748C46.6456 21.5894 46.6153 21.5219 46.5547 21.4724C46.4968 21.4228 46.4155 21.398 46.3108 21.398ZM46.2157 23.5746C46.4555 23.5746 46.6649 23.5016 46.844 23.3557L46.0793 22.6247C45.914 22.7155 45.7969 22.8036 45.728 22.889C45.6619 22.9716 45.6288 23.0652 45.6288 23.1698C45.6288 23.291 45.6825 23.3887 45.79 23.4631C45.8975 23.5374 46.0394 23.5746 46.2157 23.5746Z" fill="#29315E"/>
<path d="M51.2974 23.9546L50.7063 23.1079C50.6815 23.1107 50.6443 23.112 50.5947 23.112H49.9417V23.9546H49.4043V21.0635H50.5947C50.8455 21.0635 51.0632 21.1048 51.2478 21.1874C51.4352 21.27 51.5785 21.3884 51.6777 21.5426C51.7769 21.6968 51.8265 21.8799 51.8265 22.0919C51.8265 22.3094 51.7727 22.4966 51.6653 22.6536C51.5606 22.8105 51.409 22.9275 51.2106 23.0046L51.8761 23.9546H51.2974ZM51.285 22.0919C51.285 21.9074 51.2244 21.7656 51.1031 21.6665C50.9819 21.5674 50.8042 21.5178 50.5699 21.5178H49.9417V22.6701H50.5699C50.8042 22.6701 50.9819 22.6205 51.1031 22.5214C51.2244 22.4195 51.285 22.2764 51.285 22.0919Z" fill="#29315E"/>
<path d="M54.5977 23.5044V23.9546H52.4277V21.0635H54.5398V21.5137H52.965V22.2654H54.3621V22.7073H52.965V23.5044H54.5977Z" fill="#29315E"/>
<path d="M56.0937 23.9959C55.8704 23.9959 55.6541 23.9642 55.4447 23.9009C55.238 23.8375 55.0741 23.7536 54.9528 23.6489L55.1388 23.2318C55.2573 23.3254 55.402 23.4025 55.5728 23.4631C55.7464 23.5209 55.92 23.5498 56.0937 23.5498C56.3086 23.5498 56.4684 23.5154 56.5731 23.4466C56.6806 23.3777 56.7343 23.2869 56.7343 23.174C56.7343 23.0914 56.704 23.0239 56.6434 22.9716C56.5855 22.9165 56.5111 22.8739 56.4202 22.8436C56.3293 22.8133 56.2053 22.7789 56.0482 22.7403C55.8277 22.688 55.6486 22.6357 55.5108 22.5834C55.3758 22.5311 55.2587 22.4498 55.1595 22.3397C55.0631 22.2268 55.0148 22.0754 55.0148 21.8854C55.0148 21.7257 55.0575 21.5811 55.143 21.4517C55.2312 21.3196 55.362 21.2149 55.5356 21.1378C55.712 21.0607 55.9269 21.0222 56.1805 21.0222C56.3568 21.0222 56.5304 21.0442 56.7013 21.0883C56.8721 21.1323 57.0195 21.1957 57.1435 21.2783L56.9741 21.6954C56.8473 21.6211 56.715 21.5646 56.5773 21.5261C56.4395 21.4875 56.3058 21.4682 56.1763 21.4682C55.9641 21.4682 55.8057 21.504 55.701 21.5756C55.599 21.6472 55.548 21.7422 55.548 21.8606C55.548 21.9432 55.577 22.0107 55.6348 22.063C55.6955 22.1153 55.7712 22.1566 55.8622 22.1869C55.9531 22.2172 56.0771 22.2516 56.2342 22.2901C56.4491 22.3397 56.6255 22.392 56.7633 22.4471C56.901 22.4994 57.0182 22.5806 57.1146 22.6908C57.2138 22.8009 57.2634 22.9496 57.2634 23.1368C57.2634 23.2965 57.2193 23.4411 57.1311 23.5705C57.0457 23.6999 56.9148 23.8031 56.7385 23.8802C56.5621 23.9573 56.3472 23.9959 56.0937 23.9959Z" fill="#29315E"/>
<path d="M59.1478 23.9959C58.853 23.9959 58.5871 23.9325 58.3501 23.8059C58.1131 23.6765 57.9271 23.4989 57.7921 23.2731C57.6571 23.0446 57.5896 22.7899 57.5896 22.509C57.5896 22.2282 57.6571 21.9749 57.7921 21.7491C57.9271 21.5206 58.1131 21.343 58.3501 21.2163C58.5871 21.0869 58.853 21.0222 59.1478 21.0222C59.4427 21.0222 59.7086 21.0869 59.9456 21.2163C60.1826 21.343 60.3686 21.5192 60.5036 21.745C60.6386 21.9707 60.7061 22.2254 60.7061 22.509C60.7061 22.7926 60.6386 23.0473 60.5036 23.2731C60.3686 23.4989 60.1826 23.6765 59.9456 23.8059C59.7086 23.9325 59.4427 23.9959 59.1478 23.9959ZM59.1478 23.525C59.3407 23.525 59.5143 23.4824 59.6686 23.397C59.823 23.3089 59.9442 23.1877 60.0324 23.0336C60.1206 22.8766 60.1647 22.7018 60.1647 22.509C60.1647 22.3163 60.1206 22.1428 60.0324 21.9886C59.9442 21.8317 59.823 21.7105 59.6686 21.6252C59.5143 21.5371 59.3407 21.493 59.1478 21.493C58.9549 21.493 58.7813 21.5371 58.627 21.6252C58.4727 21.7105 58.3515 21.8317 58.2633 21.9886C58.1751 22.1428 58.131 22.3163 58.131 22.509C58.131 22.7018 58.1751 22.8766 58.2633 23.0336C58.3515 23.1877 58.4727 23.3089 58.627 23.397C58.7813 23.4824 58.9549 23.525 59.1478 23.525Z" fill="#29315E"/>
<path d="M63.1688 23.9546L62.5777 23.1079C62.5529 23.1107 62.5157 23.112 62.4661 23.112H61.813V23.9546H61.2757V21.0635H62.4661C62.7169 21.0635 62.9346 21.1048 63.1192 21.1874C63.3066 21.27 63.4498 21.3884 63.549 21.5426C63.6483 21.6968 63.6979 21.8799 63.6979 22.0919C63.6979 22.3094 63.6441 22.4966 63.5367 22.6536C63.4319 22.8105 63.2804 22.9275 63.082 23.0046L63.7475 23.9546H63.1688ZM63.1564 22.0919C63.1564 21.9074 63.0958 21.7656 62.9745 21.6665C62.8533 21.5674 62.6755 21.5178 62.4413 21.5178H61.813V22.6701H62.4413C62.6755 22.6701 62.8533 22.6205 62.9745 22.5214C63.0958 22.4195 63.1564 22.2764 63.1564 22.0919Z" fill="#29315E"/>
<path d="M64.8456 21.5178H63.8867V21.0635H66.3419V21.5178H65.3829V23.9546H64.8456V21.5178Z" fill="#29315E"/>
</svg>
