<svg width="94" height="14" viewBox="0 0 94 14" fill="none" xmlns="http://www.w3.org/2000/svg">
<g clip-path="url(#clip0_2_371)">
<path d="M13.6962 6.37208C13.9718 6.10352 14.0691 5.70937 13.9502 5.34297C13.8311 4.97657 13.5207 4.71501 13.1395 4.65951L9.74964 4.16696C9.60527 4.14593 9.48052 4.05538 9.41604 3.92447L7.90054 0.8531C7.73038 0.508006 7.385 0.293549 7.0001 0.293549C6.61548 0.293549 6.2701 0.508006 6.09994 0.8531L4.58416 3.92475C4.51968 4.05566 4.39465 4.14621 4.25028 4.16724L0.860453 4.65979C0.479475 4.71501 0.168863 4.97685 0.0497196 5.34325C-0.069143 5.70965 0.0281337 6.1038 0.303704 6.37236L2.75637 8.76307C2.86093 8.86511 2.90887 9.01201 2.8842 9.15554L2.30559 12.5314C2.25429 12.8285 2.33222 13.1175 2.52453 13.3455C2.82337 13.7006 3.34507 13.8088 3.76221 13.5896L6.79377 11.9956C6.92048 11.9292 7.08 11.9298 7.20643 11.9956L10.2383 13.5896C10.3857 13.6673 10.543 13.7065 10.7053 13.7065C11.0016 13.7065 11.2825 13.5748 11.4757 13.3455C11.6683 13.1175 11.7459 12.8279 11.6946 12.5314L11.1157 9.15554C11.0911 9.01173 11.139 8.86511 11.2436 8.76307L13.6962 6.37208Z" fill="#F0BF5F"/>
</g>
<g clip-path="url(#clip1_2_371)">
<path d="M33.6962 6.37208C33.9718 6.10352 34.0691 5.70937 33.9502 5.34297C33.8311 4.97657 33.5207 4.71501 33.1395 4.65951L29.7496 4.16696C29.6053 4.14593 29.4805 4.05538 29.416 3.92447L27.9005 0.8531C27.7304 0.508006 27.385 0.293549 27.0001 0.293549C26.6155 0.293549 26.2701 0.508006 26.0999 0.8531L24.5842 3.92475C24.5197 4.05566 24.3947 4.14621 24.2503 4.16724L20.8605 4.65979C20.4795 4.71501 20.1689 4.97685 20.0497 5.34325C19.9309 5.70965 20.0281 6.1038 20.3037 6.37236L22.7564 8.76307C22.8609 8.86511 22.9089 9.01201 22.8842 9.15554L22.3056 12.5314C22.2543 12.8285 22.3322 13.1175 22.5245 13.3455C22.8234 13.7006 23.3451 13.8088 23.7622 13.5896L26.7938 11.9956C26.9205 11.9292 27.08 11.9298 27.2064 11.9956L30.2383 13.5896C30.3857 13.6673 30.543 13.7065 30.7053 13.7065C31.0016 13.7065 31.2825 13.5748 31.4757 13.3455C31.6683 13.1175 31.7459 12.8279 31.6946 12.5314L31.1157 9.15554C31.0911 9.01173 31.139 8.86511 31.2436 8.76307L33.6962 6.37208Z" fill="#F0BF5F"/>
</g>
<g clip-path="url(#clip2_2_371)">
<path d="M53.6962 6.37208C53.9718 6.10352 54.0691 5.70937 53.9502 5.34297C53.8311 4.97657 53.5207 4.71501 53.1395 4.65951L49.7496 4.16696C49.6053 4.14593 49.4805 4.05538 49.416 3.92447L47.9005 0.8531C47.7304 0.508006 47.385 0.293549 47.0001 0.293549C46.6155 0.293549 46.2701 0.508006 46.0999 0.8531L44.5842 3.92475C44.5197 4.05566 44.3947 4.14621 44.2503 4.16724L40.8605 4.65979C40.4795 4.71501 40.1689 4.97685 40.0497 5.34325C39.9309 5.70965 40.0281 6.1038 40.3037 6.37236L42.7564 8.76307C42.8609 8.86511 42.9089 9.01201 42.8842 9.15554L42.3056 12.5314C42.2543 12.8285 42.3322 13.1175 42.5245 13.3455C42.8234 13.7006 43.3451 13.8088 43.7622 13.5896L46.7938 11.9956C46.9205 11.9292 47.08 11.9298 47.2064 11.9956L50.2383 13.5896C50.3857 13.6673 50.543 13.7065 50.7053 13.7065C51.0016 13.7065 51.2825 13.5748 51.4757 13.3455C51.6683 13.1175 51.7459 12.8279 51.6946 12.5314L51.1157 9.15554C51.0911 9.01173 51.139 8.86511 51.2436 8.76307L53.6962 6.37208Z" fill="#F0BF5F"/>
</g>
<g clip-path="url(#clip3_2_371)">
<path d="M73.6962 6.37208C73.9718 6.10352 74.0691 5.70937 73.9502 5.34297C73.8311 4.97657 73.5207 4.71501 73.1395 4.65951L69.7496 4.16696C69.6053 4.14593 69.4805 4.05538 69.416 3.92447L67.9005 0.8531C67.7304 0.508006 67.385 0.293549 67.0001 0.293549C66.6155 0.293549 66.2701 0.508006 66.0999 0.8531L64.5842 3.92475C64.5197 4.05566 64.3947 4.14621 64.2503 4.16724L60.8605 4.65979C60.4795 4.71501 60.1689 4.97685 60.0497 5.34325C59.9309 5.70965 60.0281 6.1038 60.3037 6.37236L62.7564 8.76307C62.8609 8.86511 62.9089 9.01201 62.8842 9.15554L62.3056 12.5314C62.2543 12.8285 62.3322 13.1175 62.5245 13.3455C62.8234 13.7006 63.3451 13.8088 63.7622 13.5896L66.7938 11.9956C66.9205 11.9292 67.08 11.9298 67.2064 11.9956L70.2383 13.5896C70.3857 13.6673 70.543 13.7065 70.7053 13.7065C71.0016 13.7065 71.2825 13.5748 71.4757 13.3455C71.6683 13.1175 71.7459 12.8279 71.6946 12.5314L71.1157 9.15554C71.0911 9.01173 71.139 8.86511 71.2436 8.76307L73.6962 6.37208Z" fill="#F0BF5F"/>
</g>
<g clip-path="url(#clip4_2_371)">
<path d="M93.6962 6.37208C93.9718 6.10352 94.0691 5.70937 93.9502 5.34297C93.8311 4.97657 93.5207 4.71501 93.1395 4.65951L89.7496 4.16696C89.6053 4.14593 89.4805 4.05538 89.416 3.92447L87.9005 0.8531C87.7304 0.508006 87.385 0.293549 87.0001 0.293549C86.6155 0.293549 86.2701 0.508006 86.0999 0.8531L84.5842 3.92475C84.5197 4.05566 84.3947 4.14621 84.2503 4.16724L80.8605 4.65979C80.4795 4.71501 80.1689 4.97685 80.0497 5.34325C79.9309 5.70965 80.0281 6.1038 80.3037 6.37236L82.7564 8.76307C82.8609 8.86511 82.9089 9.01201 82.8842 9.15554L82.3056 12.5314C82.2543 12.8285 82.3322 13.1175 82.5245 13.3455C82.8234 13.7006 83.3451 13.8088 83.7622 13.5896L86.7938 11.9956C86.9205 11.9292 87.08 11.9298 87.2064 11.9956L90.2383 13.5896C90.3857 13.6673 90.543 13.7065 90.7053 13.7065C91.0016 13.7065 91.2825 13.5748 91.4757 13.3455C91.6683 13.1175 91.7459 12.8279 91.6946 12.5314L91.1157 9.15554C91.0911 9.01173 91.139 8.86511 91.2436 8.76307L93.6962 6.37208Z" fill="#E9E9E9"/>
</g>
<defs>
<clipPath id="clip0_2_371">
<rect width="14" height="14" fill="white"/>
</clipPath>
<clipPath id="clip1_2_371">
<rect width="14" height="14" fill="white" transform="translate(20)"/>
</clipPath>
<clipPath id="clip2_2_371">
<rect width="14" height="14" fill="white" transform="translate(40)"/>
</clipPath>
<clipPath id="clip3_2_371">
<rect width="14" height="14" fill="white" transform="translate(60)"/>
</clipPath>
<clipPath id="clip4_2_371">
<rect width="14" height="14" fill="white" transform="translate(80)"/>
</clipPath>
</defs>
</svg>
