<svg width="94" height="14" viewBox="0 0 94 14" fill="none" xmlns="http://www.w3.org/2000/svg">
<g clip-path="url(#clip0_515_67)">
<path d="M13.6961 6.37205C13.9717 6.10349 14.0689 5.70934 13.9501 5.34294C13.8309 4.97654 13.5206 4.71498 13.1393 4.65948L9.74952 4.16693C9.60514 4.1459 9.4804 4.05535 9.41592 3.92444L7.90042 0.85307C7.73025 0.507975 7.38488 0.293518 6.99998 0.293518C6.61536 0.293518 6.26998 0.507975 6.09982 0.85307L4.58404 3.92472C4.51956 4.05563 4.39453 4.14618 4.25016 4.16721L0.86033 4.65976C0.479353 4.71498 0.168741 4.97682 0.0495976 5.34322C-0.0692651 5.70962 0.0280117 6.10377 0.303582 6.37233L2.75625 8.76304C2.86081 8.86508 2.90875 9.01198 2.88408 9.15551L2.30546 12.5313C2.25416 12.8285 2.3321 13.1175 2.52441 13.3454C2.82325 13.7006 3.34495 13.8088 3.76209 13.5896L6.79365 11.9956C6.92036 11.9292 7.07987 11.9297 7.20631 11.9956L10.2381 13.5896C10.3856 13.6672 10.5429 13.7065 10.7052 13.7065C11.0015 13.7065 11.2824 13.5747 11.4755 13.3454C11.6681 13.1175 11.7458 12.8279 11.6945 12.5313L11.1156 9.15551C11.0909 9.0117 11.1389 8.86508 11.2434 8.76304L13.6961 6.37205Z" fill="#F0BF5F"/>
</g>
<g clip-path="url(#clip1_515_67)">
<path d="M33.6961 6.37205C33.9717 6.10349 34.0689 5.70934 33.9501 5.34294C33.8309 4.97654 33.5206 4.71498 33.1393 4.65948L29.7495 4.16693C29.6051 4.1459 29.4804 4.05535 29.4159 3.92444L27.9004 0.85307C27.7303 0.507975 27.3849 0.293518 27 0.293518C26.6154 0.293518 26.27 0.507975 26.0998 0.85307L24.584 3.92472C24.5196 4.05563 24.3945 4.14618 24.2502 4.16721L20.8603 4.65976C20.4794 4.71498 20.1687 4.97682 20.0496 5.34322C19.9307 5.70962 20.028 6.10377 20.3036 6.37233L22.7562 8.76304C22.8608 8.86508 22.9087 9.01198 22.8841 9.15551L22.3055 12.5313C22.2542 12.8285 22.3321 13.1175 22.5244 13.3454C22.8232 13.7006 23.345 13.8088 23.7621 13.5896L26.7937 11.9956C26.9204 11.9292 27.0799 11.9297 27.2063 11.9956L30.2381 13.5896C30.3856 13.6672 30.5429 13.7065 30.7052 13.7065C31.0015 13.7065 31.2824 13.5747 31.4755 13.3454C31.6681 13.1175 31.7458 12.8279 31.6945 12.5313L31.1156 9.15551C31.0909 9.0117 31.1389 8.86508 31.2434 8.76304L33.6961 6.37205Z" fill="#F0BF5F"/>
</g>
<g clip-path="url(#clip2_515_67)">
<path d="M53.6961 6.37205C53.9717 6.10349 54.0689 5.70934 53.9501 5.34294C53.8309 4.97654 53.5206 4.71498 53.1393 4.65948L49.7495 4.16693C49.6051 4.1459 49.4804 4.05535 49.4159 3.92444L47.9004 0.85307C47.7303 0.507975 47.3849 0.293518 47 0.293518C46.6154 0.293518 46.27 0.507975 46.0998 0.85307L44.584 3.92472C44.5196 4.05563 44.3945 4.14618 44.2502 4.16721L40.8603 4.65976C40.4794 4.71498 40.1687 4.97682 40.0496 5.34322C39.9307 5.70962 40.028 6.10377 40.3036 6.37233L42.7562 8.76304C42.8608 8.86508 42.9087 9.01198 42.8841 9.15551L42.3055 12.5313C42.2542 12.8285 42.3321 13.1175 42.5244 13.3454C42.8232 13.7006 43.345 13.8088 43.7621 13.5896L46.7937 11.9956C46.9204 11.9292 47.0799 11.9297 47.2063 11.9956L50.2381 13.5896C50.3856 13.6672 50.5429 13.7065 50.7052 13.7065C51.0015 13.7065 51.2824 13.5747 51.4755 13.3454C51.6681 13.1175 51.7458 12.8279 51.6945 12.5313L51.1156 9.15551C51.0909 9.0117 51.1389 8.86508 51.2434 8.76304L53.6961 6.37205Z" fill="#F0BF5F"/>
</g>
<g clip-path="url(#clip3_515_67)">
<path d="M73.6961 6.37205C73.9717 6.10349 74.0689 5.70934 73.9501 5.34294C73.8309 4.97654 73.5206 4.71498 73.1393 4.65948L69.7495 4.16693C69.6051 4.1459 69.4804 4.05535 69.4159 3.92444L67.9004 0.85307C67.7303 0.507975 67.3849 0.293518 67 0.293518C66.6154 0.293518 66.27 0.507975 66.0998 0.85307L64.584 3.92472C64.5196 4.05563 64.3945 4.14618 64.2502 4.16721L60.8603 4.65976C60.4794 4.71498 60.1687 4.97682 60.0496 5.34322C59.9307 5.70962 60.028 6.10377 60.3036 6.37233L62.7562 8.76304C62.8608 8.86508 62.9087 9.01198 62.8841 9.15551L62.3055 12.5313C62.2542 12.8285 62.3321 13.1175 62.5244 13.3454C62.8232 13.7006 63.345 13.8088 63.7621 13.5896L66.7937 11.9956C66.9204 11.9292 67.0799 11.9297 67.2063 11.9956L70.2381 13.5896C70.3856 13.6672 70.5429 13.7065 70.7052 13.7065C71.0015 13.7065 71.2824 13.5747 71.4755 13.3454C71.6681 13.1175 71.7458 12.8279 71.6945 12.5313L71.1156 9.15551C71.0909 9.0117 71.1389 8.86508 71.2434 8.76304L73.6961 6.37205Z" fill="#F0BF5F"/>
</g>
<g clip-path="url(#clip4_515_67)">
<path d="M93.6961 6.37205C93.9717 6.10349 94.0689 5.70934 93.9501 5.34294C93.8309 4.97654 93.5206 4.71498 93.1393 4.65948L89.7495 4.16693C89.6051 4.1459 89.4804 4.05535 89.4159 3.92444L87.9004 0.85307C87.7303 0.507975 87.3849 0.293518 87 0.293518C86.6154 0.293518 86.27 0.507975 86.0998 0.85307L84.584 3.92472C84.5196 4.05563 84.3945 4.14618 84.2502 4.16721L80.8603 4.65976C80.4794 4.71498 80.1687 4.97682 80.0496 5.34322C79.9307 5.70962 80.028 6.10377 80.3036 6.37233L82.7562 8.76304C82.8608 8.86508 82.9087 9.01198 82.8841 9.15551L82.3055 12.5313C82.2542 12.8285 82.3321 13.1175 82.5244 13.3454C82.8232 13.7006 83.345 13.8088 83.7621 13.5896L86.7937 11.9956C86.9204 11.9292 87.0799 11.9297 87.2063 11.9956L90.2381 13.5896C90.3856 13.6672 90.5429 13.7065 90.7052 13.7065C91.0015 13.7065 91.2824 13.5747 91.4755 13.3454C91.6681 13.1175 91.7458 12.8279 91.6945 12.5313L91.1156 9.15551C91.0909 9.0117 91.1389 8.86508 91.2434 8.76304L93.6961 6.37205Z" fill="#F0BF5F"/>
</g>
<defs>
<clipPath id="clip0_515_67">
<rect width="14" height="14" fill="white"/>
</clipPath>
<clipPath id="clip1_515_67">
<rect width="14" height="14" fill="white" transform="translate(20)"/>
</clipPath>
<clipPath id="clip2_515_67">
<rect width="14" height="14" fill="white" transform="translate(40)"/>
</clipPath>
<clipPath id="clip3_515_67">
<rect width="14" height="14" fill="white" transform="translate(60)"/>
</clipPath>
<clipPath id="clip4_515_67">
<rect width="14" height="14" fill="white" transform="translate(80)"/>
</clipPath>
</defs>
</svg>
